<mxfile host="app.diagrams.net" agent="Mozilla/5.0 (Macintosh; Intel Mac OS X 10.15; rv:134.0) Gecko/20100101 Firefox/134.0" version="26.0.7">
  <diagram name="Page-1" id="bXYwn6JBJjJ-PractEFF">
    <mxGraphModel dx="1434" dy="942" grid="1" gridSize="10" guides="1" tooltips="1" connect="1" arrows="1" fold="1" page="1" pageScale="1" pageWidth="850" pageHeight="1100" math="0" shadow="0">
      <root>
        <mxCell id="0" />
        <mxCell id="1" parent="0" />
        <UserObject label="" Manufacturer="Fortinet" Comments="" Cost="" Location="" Building="" Room="" Department="" id="JhZKAX3BcbJPcAhVRO4t-1">
          <mxCell style="vsdxID=5;fillColor=none;gradientColor=none;strokeColor=none;points=[[0.07,0.56,0],[0.11,0.55,0],[0.16,0.54,0],[0.21,0.54,0],[0.24,0.8,0],[0.29,0.8,0],[0.29,0.8,0],[0.35,0.8,0],[0.36,0.8,0],[0.4,0.8,0],[0.4,0.8,0],[0.44,0.8,0]];labelBackgroundColor=none;rounded=0;html=1;whiteSpace=wrap;" parent="1" vertex="1">
            <mxGeometry x="360" y="550" width="132.4" height="11.700000000000001" as="geometry" />
          </mxCell>
        </UserObject>
        <mxCell id="JhZKAX3BcbJPcAhVRO4t-2" style="vsdxID=6;fillColor=none;gradientColor=none;image;aspect=fixed;image=data:image/png,iVBORw0KGgoAAAANSUhEUgAAAw4AAABFCAIAAABsVyYoAAAN40lEQVR4nO3dMW/jyB0F8OcgzXmv9npuCDfuUsW6HUx52OqwWwjzAbZKIYFV8gUCw0iVq9IRVr3NFQEGKnxIZVwTYMA7OsUhnZsDeaPd+m5TOgVtmZZEipIoirbfr9ilKGrmT1u7fBqSI4CIiIiISuwBGAwGuy6DiIiIqIt+t+sCiIiIiLqLUYmIiIioFKMSERERUSlGJSIiIqJSv991AURERPS8nJ+f77qEBYbD4cL1jEpERET0mAyHwzxsTcNNMXstXDnz8uKzMw/n8QQcERERdcVwOCwb3WnKfCqS5UNK4KgSERER7cRMOskTzMLRnaUDP5uQWisAqcuyxRtwVImIiIi6aL3hpTUSlQdQkpPA2bqJiIiIKnBUiYiIiKgUoxJ1j9RaS7ngkczNLT81z3CXiYg6q9NRSWotp39JbYwxWkod5gv1mzH3L7hfXtj4gg2A2x5X6bLY9203Rsvbbox8sN4YY0wYznS6htX6kmvu0dZpEwZpmiIIjQakMSpNU6jQSGlUcLfV3XK+1UY/t655hrtMRNRlnY5KgRDTv7QSPrZxCiV8bK0XquZxQhsVW2vjFPJu2UIZGYi3faNnGjcPNhB3ZfjYWmtd+SVf5buAk56SkEFPCGVUaq21MWRxPWJrvfexddBGidX7WK8vxPlurt/fdmiBscuyLHNjCI3MQ/SVCuKxzQAhgiAIUChaAJBSq15PPZXo8Ax3mYgoJ00YhmG48JO8lPmHf3m71cMD2PyQuzS3LUl9u/F0AdDGaFPa1YxHM1mAs7HUWvWE8EJpDQFUXa4+J8sySKW8A4AUCICrsRemB6TTxnsnPrH3G0wJpXWA1K0Tlq48Ah3A+/yh1KYv/NjPrgeAzFlovXoXa/WVQRsRW1e/9S3dpTl7g4MQQf6bDYQAZBpHLoPUoQnG8N65vOK7t7aNLAAZeIE0nf56Wiq1ub6KLe9ql7c9kQkR0VKBOPTJKHZZJnXY7/lxFKuwj2RsUzUYiIvRGFBhH+MogtYSWWDCHpJxLAYDMZkAPoluD2xSCfjEp5nu95Ox7xuZiF6+MEa/dwJMkERRas5CfRpVHgw7HZWcR6i1F/AOUisFv/w1ixoxRgfIR1RUaHQC4WMLZeCs750J2LvG/YUXhQ1CpXWQptOm5Erh7E7sRR9xApF69E2QzK1fY6c270uHfZEkkCibRmJeO4dSN/ZhaAROTg4nF6fItAqVSiCAMWZ+Vtm09szFkIU9afOo33hfWdD1XSYi2h4hgkBC9XtJNBahUUASuQwIJhPvsiDsCyDJpAnfvgHSBB4nb1V8McHJ4eFkcvjWxM5mABAnY4h+3/jDPD0E4nYBmY0SEfbyZT9ZWhInC6DOkqsEOSIievR0eCbGpzaDDs/eYgIkF+ghihygw7NeMkp6fSR4+xYTHB5eXVyJHnB44kcXYvCnP+I/303gx5HL8qZ6mMCPx+j3xSGS07EI84XIQYdhD4eHmOAQF0sGlRiViIiIiMp1+rJueiq6coM7b7UnIqJVMSrRtklzNqh7v+I2aRMG01vtiYiI6mFUom3L7MXVrmsAAGcjl0EA6fJtiYiIbjEq0fMhTah8ZHd7qThPAhIRPS7dnSxgNBrV3HLmsvT379/XedXnn39e9tSvv/5ap4V3796t1OOnT5+qN9jf36/TTpt9TffxCdDh4AQTEZp0d2lJGhPEsTAGdrs1SBP2Md51LCQiegq6G5UA/O/6X3U2+/Pf/zmz5rffflv6qpcvX378+HHhUwcHBx8+fKh++YsXL4oPv/rqq4qNv/vuu6X1APj06dObN2+q29nf32+qLwDV3X3//fd1msqNzu+j7WD48J5KZ+3c9ucPo/Cwudswyypx0enC20G3V8m8zFrosIfxdiOMNMonvskZu4iInq9ORyUAnx1/Xb1BzTi1VXnsqMgob968qZlgarbTSF/VW1anqBnFdJI/nE1LD53PDRmej0aNZJTuVFImc9HYGI1shYnSV5MPn50cHl7FlhNTERFtqutRKZd/acOjmI/4bzcPHv51b812bh62s7eonTb7okZIE/Z94gXiLXaSD59pY1LmJCKizT2OqJQ7Pz/vflpaO6/MqJNX2uyLGpHZKAKwtQGlgkVnPYmIaHWPICo1+9WnL1++zBfKLlSa2WzpRUtTK52x2rCdNvsiIiJ6zh5BVGpcdUgqbnBwcFCnwf39/YuLCwB7G4/PVFw8dHNz8+LFi9b6wtyl61u11cuDVtKdSoiIqAueY1SixlVfOj1ve3GkO5UQEdHTwCkoiYiIiErVGlVaOBvkoNsfx6cXG81YevatTjv1L2B6MurPCLoNxTdbdyrJ7baeZnX8HzUR0ebWiDTLo9JoNLq8vJxf//r166Wt79aqqahmCzUvYHp6vvzyy530++OPP3a2kty268n7bacXIqInbL1IUxWV8uRVbDRvK1+T/9n9wERERETP3CaRpjQqFZPX69evf/75ZwD5n7mjo6PLy8tp60xLRERE1EEbRprll3VPGwVwfX396tWrV69e5X3k+YuIiIio+9aLNIuj0jR/FRvNFS+YmDZ9eXn5lC5uXdvNzFeEbLPlNvsiIiJ6pDaPNAuiUkWj8zi2RERERN20XqSZSUtVJ+CWNlrcjANLRERE1E0rRZoZpZd118lfxY0X3n333Gz+ZSMVLc+cF2uzL6ItkTpUwsPH1mVSaziXSW2UgI9j9JXwyJ9rsxj42DpoDedwV16xGGgNlyqj2qyNtqric37tO5aklACQZRkggdv3xf0S7dRKkWbeknmV8sudivITe/PriYhWFQgfWxsYIxEoIaARCOFjm0Iq5WNr2zzM5MVkAKCNENDwd+Up+NjaTBstkQrRN2JsbSal5JHwCZn/+vCKL8qckiZUcRQrFcRxiiA0wRhvBxid2kyas3xhO/XSympGmo8fP86M/lRFpevrayya+G5mDWeuI6J1CaU1BITpCXj0tI1iqbXqCeGF0jpA6tobuBFK6yB1qbotxvu78rxQOuz3kshBqrvNs4zHQHpIAB64mkBJQGFyteuCaKpmpMGiVFMVlY6Pj7/99tuZld988w2zERE1SpwgObUO2oRGeO+Lz7U4cONj5zJIo5LIOmhz1sOVnz5lMxgjEQOJhzI6gADPwHVYflqt3Tn/bGQhjUk8lFHwCUSLnVOl+pFmfrPSqJSPPh0fHxdX5qEMwA8//LBwPRFRfc5GAOCcffAYcDspJq8iuz0L5+ype1hMvkXGEypdl4ek/IRae4GpOMrovDjrJdYLs/VuqY4NI03VHXBHR0d1Kqi5GRERUTumFx7NX4HUrMxGNkNmrbtfYx1cdBo5uHYvt6Mqm0SaBVFpMBhM5xVY2nQ+Fzj43SZERETUMY1EmsUn4PKm8+9DOTo6KrvFjjmJiIiehjr3u9FjtHmkWTJZAO6C2LTp6QVQ00aJiCqMzs8Xrh8Mh11rao12mm2KGjEYDIpTJbXwSZ7vgcdivUhTGpWKY1aXl5f5VU7TqSavr6+n4QtbfiMOh8Pzkv8fqx0cHDReDBGtZOYQ8g/gL4WnVjqWTJvK/7v5Cfh3E1VtUlJFVWs0RQ3Kj0qj0ajO4WnDQ1hZgud7oDs2jDRVo0r51sWZuGcyV2vn3X755ZcvvvhiuMp77sOHD9urp0ybk1xzQm16jP7bRCOju1xyv2aDY9JMSSs1VTxGzldFO7fzK0OYlrpjk0iz/ATcNIuVddyCs7Ozdjoiou4bAH8Aftp1GQAGw2FxVKkjVRFRmfUizfKoVP36bfvf9b+qN/js+Oudf24gojLFMAFg9PCp9Zqa/76utZuab62pqjiW8HzMvMlnnmq5GFpqjcxQKyrtymfHX++6BCLaVINHiyffFD1SfA88bd2NShwr6prufKFNdyrJtVDPzB09RETUmr1dFzBr84T0/v37RipZ6t27dy332LLpDhIREbWpUx8Of9+pG6n29hqIbu0f4BkpiIiImtWdfLLXkVIaCUk1lQ1ctZZh64+c1ZlQaqU5FLrQV81Zsur31XiDjWunwu7/HIioEW2OuOz8iNmFlLLkWqU2E8zp6WkLvZydnVX8gluoYeWJD6p/BTc3AKQ2Ch5IY6h8wUMBQGrdKt/VuFd+QvYGNwC0NgAEYg+kUCq1PpCAArxYubPy/br7h5F3h9SmMEr5OIZSKHwr5WrF500ag9gLBQCxdZnUZrq8QvFrqfhFNvg/QTu9ENFuPZ8jZms5pCKT1fpik0aLWaxsnoNtKNujNmtolAzyo74J+34cuUwaE3gIAZ+u0EpF1MifvcENhBAAfAYYBfjAABaiLwD4xQmmpLlab30HGAGfIsu8UikC5QENzPdUq3hAauEhBiI5vc1bUglflr2aVb3Dew3lmM5de0hEj9zOj5hdCCG/a6EC2rIshdJSKyTj2wUPAe8hgqa78om1kXVwEAI2FUCar/QQsunOoB/sRRDAp7EXeu2OZACfxslE9LTWRksgi724WyYiIlqgu5MFUH2ZsxmADLd/bO1UknN3AzAuigAg79cBsHYL3d03er+Yrb93mXMZgChyhVV26yfeiIjoMeOoEhEREVEpRiUiIiKiUoxKRERERKWWX6v0aO8LK/X09qgRN7ipd799I53d1LwJrm57bRa/lptWbuOv7oWIaFU7P2LuvAAsjUqtTf20t7e38oRD66qYUKu1GlbQ4uxbrUaKpverC3moWjv1df2nQERNeD5HzC5MQdmV2bpzbc54SURERJ3VnXzyf1TvQjqPMwvDAAAAAElFTkSuQmCC;strokeColor=none;points=[];labelBackgroundColor=none;rounded=0;html=1;whiteSpace=wrap;" parent="JhZKAX3BcbJPcAhVRO4t-1" vertex="1">
          <mxGeometry width="132.4" height="11.700000000000001" as="geometry" />
        </mxCell>
        <UserObject label="" Manufacturer="Fortinet" Comments="" Cost="" Location="" Building="" Room="" Department="" id="JhZKAX3BcbJPcAhVRO4t-3">
          <mxCell style="vsdxID=5;fillColor=none;gradientColor=none;strokeColor=none;points=[[0.5,0,0],[0.5,1,0],[0.79,0.34,0],[0.79,0.67,0],[0.7,0.34,0],[0.7,0.67,0],[0.64,0.34,0],[0.64,0.67,0],[0.58,0.34,0],[0.58,0.67,0],[0.52,0.34,0],[0.52,0.67,0],[0.46,0.34,0],[0.46,0.67,0],[0.4,0.34,0],[0.4,0.67,0],[0.32,0.34,0],[0.32,0.67,0],[0.2,0.56,0],[0.2,0.72,0],[0.14,0.74,0],[0.13,0.24,0],[0.08,0.6,0],[0,0.5,0],[1,0.5,0]];labelBackgroundColor=none;rounded=0;html=1;whiteSpace=wrap;" parent="1" vertex="1">
            <mxGeometry x="380" y="540" width="93.60000000000001" height="17.5" as="geometry" />
          </mxCell>
        </UserObject>
        <mxCell id="JhZKAX3BcbJPcAhVRO4t-4" style="vsdxID=6;fillColor=none;gradientColor=none;image;aspect=fixed;image=data:image/png,iVBORw0KGgoAAAANSUhEUgAAAigAAABoCAIAAABUqJyXAAAOfUlEQVR4nO3dv4vj1toH8MfhVoFbGMN0LoSFCrc79w9Y0EXGcGG4XPI2Ial2V4YohTBptghTbBOMiigw2qR6093w8jLwgrB4D8wfkNnWhZA5xXQDxsVCyswtzozXM/bMyNY5Rz/8/RCysmzreY6l0eNzJEutm5sbKqzVahVfCAAAVJyUkvFZ8UW0Wq3lcll8OQAAUFnL5XK5XErpZvyl4PtF1Wm324vFong2AABQTe12e1V7CvZ7JPR4AACg8RaLRbvdlrIoFB4AANAKhQcAALRC4QEAAK1QeAAAQCsUHgAA0EpC4ZF1ngMAAFSclB1+0dOxW60WfsEDAHA4Op0OfscDcjA/YkREPPL9gR8xXlYCD6dl45E/UN1AHvl31AW6C6KwKZo2BpWr+wEe3cVi/sC/m/IZEfFo4EerljJ/cPeA+Wvzb+doS7iZUHiAxL54MkuJiEchecE0MONRpLH0fErg/rSKSCPyptPAyUKFDTTcIAiCwLOITNtQE4MnqeUFQRC4yiLo2BjUru4NhmOlGSciFhNRzMSU1SNiYdqn8+RTQ39/u2r2rLyEmwmFB4iInGA67hMRGW7gGpxFMZ04inZnTyfwYFq6+e0ewzApnasKIvAoTIeBrWrx83R2HvqDga+sP6JnY1C6ujfdrngW0/DMoowTz8hyDGIxDQPvZK3yfP3vcbqt4mpOuJEaVXg6a8rOpV6M+7sVo+cMKU009njWEzCUFjzbOzkf+b7vT2bPv7gQFqaWp6zsEPWGZ9MgmE6Hcahy2Ef1xqB2dW9hDylmPCOrZzhWmrAkFXVnRhmbU/987dO0gy2lR3vCTdSQwiOKzeXlL6v/OP9fVKA9cBYxIsOwh/dGHZrEOZsGQeCdKP7SyuKZpbLTyJNsfjcQlKlZUw3dGHoWxWFqOQYZJqVxSqbBowmNPafXc7yTWbxWx+1gnI6Uf0c5PEWvTl06UVouL39ZzRkO3xJRHL8TMzudDs67y8/oUTjws/7s3BpPm/nVLgl9sug8tc5chVF4NuubKj9Aw6HRSO2aaujGYDjW7Jw8g4jsIf1XPAx4EveHrujKuGMaRNxebRt2MI47k9KSbah6n04tejnrcz5+NH/44Qci+vDhQxy/EzOPj18REcoPAEBxB3069WbVeUzOlwEAgAZ1LTz5q45wefkLjvcAAFRB7Y/x5CdqzyEMuJVeYheLRek5wEHZ+ndd+kZ4CHub/dSyx7NrdwcAAKrjgHo8dGAHe377dYfGfjN++9hTP03e5V/OF1+92i8HWQnsF0JPlBqF0BNFSogHm9ymKvwhwAP1LjzizOkHXrx48dizcfzuQEbb9nB9fb11/jfjtxJ3Z+Um8FiIo6MjKct/IoqGECR7ZTWmITupYErNU+PC8/Gjuaoxm7Y+tbVQAQCATrU8xgMAAPVV4x4PEX333XebM1c/IN18Ko7fGcY/ladVH08f9njwMhXjDBoS0NPGPFFWr0FD8r9Mz+hWBVNqthoXnr/+Nduc+fGjuZpeXblg5fj41WKBwnPPYyPamy9QNMatIQE9bXw6yurZIsdI0BB1KphSg9VyqG2xWIir4AAAQO3UsvDs5/j4Fc5nAwAoXV0LDzo9AAA1VeNjPOK6LDl/E3rg3Z3Hjp0+O66dZzl5xrv1JJDzELGKEPkbcn19/dhCRJRyP6vaNaT4ospN6TDVuPBQ7tpz4FVH2PVPK+cS8h9h1pNAwSgaQuSJUovPKk+U0re6nAssvgS5v6ttvHoXHrqrPa9fv379+m9izvqJ1LgTDwBA1fyFiFqtVtlpFCJqz88//yweXlxcvHz5ktDRAQBQo0jVuLm5ue3xLJfL/RbRbrf3Di/RgwKDegMAoE7BklHXs9oAAKCmUHgAAEArFB4AANAKhQcAALRC4QEAAK1q/zueB7rdrpi4uroqNxMAANhKU+HpdDpi4ukTnXO+bCtRclb15sFDuThjZNuG+IdYlGRkOg6FSWaR6bi2oSIoAEAz6BhqW5UTKS/bqtvtXl1diTIjliMerjpAcs2zbPUPSzLTcZ0eJZnluK6ZJVxFSACApmjaUJt+tutwxpI4S62UGKOUiAhdHgCAxzTh5ALR3dn6lKJOj21SyFiUkWkQZ0kiPQAAQHPp7vEUGU+rENsNiMi2xbS7ml6fAACAbZrQ4wEAgBrR1+PJf1G5ilx4tGFKv1+IngQ0RGlGCD1RSt/qNlUwpQPUurm5abVaRS41+uypz2J4bafCs+vp1N1u948//tic//nnnx/gD3rEB/7br7nuzSrXF1/d3gCpxBzgoKw2uc2nqvCHoD+0Bp1Op0jJuLm5ac5QW1PXMQBAw+gbass5gLZfIRVnr633bwr+gPSzzxSW5D///FPdwgEAKq45v+NZ//WoULAP9P//9z9Fc9rm7//4l4rFAgDURXMKjyB9wE2M1cqCYx4AAE0rPHJ98dWrFy9eyFrahw8fZC0KAKC+UHieJ6VgSCxgAAC1hsKT1/v37/d+75s3byRmsodvxm/VLfynybuKJKAuioYQqyh1/6xIb0N2UsGUDhMKz6G4vr5Wsdj8P8fTk4CKKBpCPIhS38+KymjITiqY0gFC4cmr9F4LAEAzNOcHpAAAUAsoPAAAoJW+wrP3tX0AAKBJtPZ4nq09KE4AAI2n++SC5XL52EXbKlt18BMcAACJSjirrbIFZtNvv/4i95I5AACA06mfgaurAQDI1ZDbIgAAQF3gdGoAANAKhQcAALTCMZ5n4H48AABy3RaenAdgDs0XX726uLgYj8dSlob78QBAM+xdMm5ubkgUHjG1n1artfd7Ly4uXr58uffb9RiPx7gfDwDAuiJVg8odapNbdX788UciOj093eld33//PRF9++23z75y7/vx4LLWAADrmnOMR5ScXe+KcXp6KmrP04rcBe79+/eoPQAAKw0pPKK7s8e9mI6Ojk5PT5/t8bx586ZI7SndT5N3j917Mf99sYrc6kpbAltfoyFE/ijPhij3s8ofpToNya+CKR2mhhQeDerea9l6X95d7wRc5Oa+GhIoK8SuUZ79GNGQnaIUX1q5KR2gZhaePF9e8LUFAKAUDSk8Yqzs9PT06Ojo+vr68vLy2bccHx+LF+c5xgMAALI0pPDQWu3J/xZRdfKc0tZgq57fY91E1V1DDQnoaePTUTSE0BOlRg3ZSQVTajB9hQdX/6yg1VD102Pc6ka0NSSgp415omgIoSdKLRqykwqm1GzN6fGsOz4+lrIccT8e/PYTAECiZhYeiXB1NQAAuSp3P54i9jha88Rb/v6PfxVLp2ZKH8LWkICeNqIhlQqxqwqm1DytgpfcabVai8VCVjYgRafTKTeBxWJReg5wULbuhUrfCJu6b+x0OgULB+7HAwAAWjWzx8MZI9s2xD/EoiQj03EoTDKLTMe1Dbnhut3u1dWV3GUCAFQTejzbzbNs9Q9LMtNxnR4lmeW4rpklXGqsbrf75ZdfdrvdbrcrdcEAAM2kpPDwaDDwhYiJGb7vR5E/8KPNvT6PBj4jImL+wI8i3484j3wxi4itpvZku05vzpIwSSlNGMtSmhda3j2i6hCR+H+tsduVRbS2TspIgEf+YOCvZaMgBIv8wcBncr+DfMKZaIKq5d8SrVDxQT2geHtQuMa3xbqNw/y7Rt3uZHi0voNi/uDuAbu3KnVm21iKejz9Ey8IgiDwKI44j0LygsB1g6lnzjnRWjnhLEqoLyZ73lngup6VJuQOKRbFKKahvXN426SQsSgj0yDOkkRau5qKR/5gMktXj8Lz0hLg0Yi86TTwaCJ3X7ceIozNYDr1slBJaeDRKB5Op4FHapZ/F8UXraBMcYFTvD0oW+NbGY6VZpyIWEwk9jIsJqtHxMK0T+drAyK/vx3dfbKzkrJtLMWnUxsmpfM5kenePrZtYtFgcv777zSbZeOpa7su+T4RkWEYRDwK02HgEg3JZ2RTTMNgj7i2GxCRbYtpdzW9PiHD1dXVaoSt1od5nGBqitVAPArJG/fDkhIw3KlLRDRPyXLUhJinM8uh262TSPIRPyLDOaEwYlmaWp4re+Er85Qs8gcTOjkLpDdhjfLtQd0a3x5OrPV5TMMzK0449TKyHINYSMPAswYJd13xeX7973E6ivj03jrUnG1TKT7GwzOyej2Lsrs+axQx251Ox19/PZ5O3Qc1gEd+aHqBKBdDihmLLU9mnVDh6k7ZiRRhrPZcPArJc1XuyJ5J4DaLwcQ6k5vGeoi+qXRXnaRkOT1nSKnkA4r3/XcqejwjhV+9dW0PKtb4I+whxYxnZPUMx0oTlqSWYxCLZ5SxOfXPw0+fph2M09H2wwO6sm0oRYVndh76vu8PRjR0DcMdUiiO8cTkiLISBBsFhfnH50Rx6EeME5HtWZOJ5WDdasXnRGno+5PZbKL6CMVjmD8IzbOpuj/ru29CPFOz/HlKQ9cwDHt4b+RGur9ZPSIyzL66EHq2B+Vr/L6eRXGYWo5BhklpnJJp8GhCY8/p9RzvZBav1XE7GKejyWz97ZqzbaamnU7No2juuLbBWTTvub15lGREjuvSp/lJRkRpStZQ/onVdcZ8n1bfB+490JoA+YMJ9ftERJYXSP7rvm0WZ/4otvqz1DqTHYGIiHjkj1LrhM7T4VTdhyii9OmcVEYRVG4PTOUa34pHgxGJ0sH8TjxceJkfmnftY/4g86bufNVk5ncm1uVtpdGfbQUVP526aYWHRYOYzgJn7oeZZZHjugZxzo158mm+F7jzKOq5B7rRAAAUgd/xbDqxaM7mZFniIWdRmMz5xnwAACiHhMLT6XRKvybSOsfMYuqZRI5JYTTfnA8AAHuQtbeXMNS2XC7b7XalBtwAAEC6TqcjdvgYagMAgDpB4QEAAK1QeAAAQCsUHgAA0AqFBwAAtJJTeJbLZaXOqAYAALnEKW1SFlX0dGq6O6OaiNrttoyUAACgclb7+eJV4z+1XLwNhQfaTwAAAABJRU5ErkJggg==;strokeColor=none;points=[];labelBackgroundColor=none;rounded=0;html=1;whiteSpace=wrap;" parent="JhZKAX3BcbJPcAhVRO4t-3" vertex="1">
          <mxGeometry width="93.60000000000001" height="17.5" as="geometry" />
        </mxCell>
        <UserObject label="" EquipmentType="Firewall" Manufacturer="Fortinet" ProductNumber="FG-1000F" ProductDescription="2U Next-Generation Firewall" ProductLine="FortiGate" Attribute="Rackmountable" Units="Inch" Ht="3.5" Wd="17.44" Dp="17.63" WtUnits="Pound" Wt="21.94" IVoltMin="100" IVoltMax="240" PowerMin="210" PowerMax="408" HeatDissipatedMin="1211" HeatDissipatedMax="1211" DeviceRelationship="" PortDetails="" Gbps="" id="JhZKAX3BcbJPcAhVRO4t-5">
          <mxCell style="vsdxID=5;fillColor=none;gradientColor=none;strokeColor=none;points=[[0.11,0.83,0],[0.12,0.83,0],[0.16,0.83,0],[0.2,0.68,0],[0.2,0.83,0],[0.29,0.68,0],[0.29,0.83,0],[0.32,0.68,0],[0.32,0.83,0],[0.35,0.68,0],[0.35,0.83,0],[0.38,0.68,0],[0.38,0.83,0],[0.42,0.73,0],[0.45,0.73,0],[0.42,0.9,0],[0.45,0.9,0],[0.45,0.73,0],[0.48,0.73,0],[0.45,0.9,0],[0.48,0.9,0],[0.48,0.73,0],[0.51,0.73,0],[0.48,0.9,0],[0.51,0.9,0],[0.51,0.73,0],[0.54,0.73,0],[0.51,0.9,0],[0.54,0.9,0],[0.56,0.73,0],[0.59,0.73,0],[0.56,0.9,0],[0.59,0.9,0],[0.59,0.73,0],[0.62,0.73,0],[0.59,0.9,0],[0.62,0.9,0],[0.62,0.73,0],[0.65,0.73,0],[0.62,0.9,0],[0.65,0.9,0],[0.65,0.73,0],[0.68,0.73,0],[0.65,0.9,0],[0.68,0.9,0],[0.7,0.73,0],[0.73,0.73,0],[0.7,0.9,0],[0.73,0.9,0],[0.73,0.73,0],[0.76,0.73,0],[0.73,0.9,0],[0.76,0.9,0],[0.76,0.73,0],[0.79,0.73,0],[0.76,0.9,0],[0.79,0.9,0],[0.79,0.73,0],[0.82,0.73,0],[0.79,0.9,0],[0.82,0.9,0],[0.84,0.9,0],[0.87,0.9,0],[0.88,0.9,0],[0.91,0.9,0]];labelBackgroundColor=#ffffff;rounded=0;html=1;whiteSpace=wrap;" parent="1" vertex="1">
            <mxGeometry x="340" y="160" width="193" height="35" as="geometry" />
          </mxCell>
        </UserObject>
        <mxCell id="JhZKAX3BcbJPcAhVRO4t-6" style="vsdxID=6;fillColor=none;gradientColor=none;image;aspect=fixed;image=data:image/png,iVBORw0KGgoAAAANSUhEUgAABHcAAADSCAIAAABPU7sCAAA3SElEQVR4nO2dz4sdR7bnTzX9B0xJQrs2XCp9tXibZqwnXMteZHOr8MaLNzBt3MxKJjcWovshGHi4mwcDop8ppE1irR4W6ln0QhtTdelcdO/UqO3hbV3O4oKXwq7q/0CzyLpZWfkjMjJ+noj8fjDyrbzfjHMy4mRknJuRkfT27VsCAAAAAAAAAGCIHSK6uLjw7cYlu7u7fJwBAAAAAAAAhAKrVOInvh0AAAAAAAAAgKhAlgUAAAAAAAAAJkGWBQAAAAAAAAAm+alvB6axu7vr2wUAgF3kZ1SjQwBgDkx6ygLdAgDRw+fJKzFhZFl1pxlKtQIAlKnOd/HJLqMBAMSB5PmObgGAmRBKXhBAlsVqtRAAgG2q811w4qNPAGBWyPQJxH68BQAwRX2yMx8PcH8ui3n1AQAscXFx0TvzB30CAPNkqE+ov3XpDACAA+JuwTussywMpwCYM93eE30CAHOmd0SFbgGAOcM50QpgxmAvrQoVzyIYlbWUmqWZNcpBJlBCJlZGIBMoFWT2BkOco2K2wYMehrmMGLS+1QSJc+WjxV3KBErI1GQUbLfgkh2yuXrP1Gpq/SI19ANVrw9dpY6sq4TMbA1HIOsqIVOOpSGancDoUxmjVoKTdZURyIaUkFmVdZWcZQIkxwlDtji3EQLDsWxICdmoknO3IOgTBLvLiycVLjtjcHfL2ynUe8k7JOPJpO1qMjCKZENEIAPM4Rw8iLEuZvvqEJtVTYZYmkQE8YPRjm04NyuCxAEOUhupLKvpwaQDaPo0aUd93FzIjcuaX0nKrPqjIIsPzrVtNuQ4+DNPOPcwCB5lvBxR3LGkT0DxIwnnFrfqjz1ZfHAOEl+N4ia1Gc+yKj8medDrE5/gjuzc5nw4LmUMXQpCxsoBBYxY4dxArGpb34FwZQxd8ivjjMsjrQuJvi9SgPPheAmS6GVmsRqZblKbkSzLiB/y3rhBckqlF5k9OB+1ERlDl6YyzyDRxIgVBI8zB8KVMXTJkiwCXFZIXQj6ImU4H3X0zRpKkBjEZWojyrIM+sEWbsHa/MqsTM0fQA6b1WxpnIMEIdcCwSMPgkcM5yDRjyWgDOfAUPNHQQbEBBokk3Cc2jh9X5aR21lDld7ajlPOOJI1HIEMKOOlSjkHj2RpgFTrhFXrmw0SNRkQwzkwcCGzDef24iADCohTmx0armUbCd/Ozo6gUXdVV2iNQDaklJTZdg8yq83qJkiYx9LQvrVe0CEYd4aDbEiJ4IHMkmxI6SuWepEfJ3Rtca58zrIhJboFyEaV7ruF0T7BZWoTapYlKQBukGwIzjLAE/muU14jLzMLQtE26GHmwNRxgnLJrGTANpxbH7E0CrKscVfIZu8JAAiRqVkWACBuME4AALRgm2U5fS7LAbu7u93bjlHKqO8GqxsZ2zqBrFfJWSap1IFzA0UgI/QwkElgVqYP5+qKQEboFiAzJCOH3YINnN7LEt/IIr3fqLrN4GV+ea8Ssu5GJu0VQZDEGpm1WPleFpPm5hw8fGS9SsisynqVnGW12OA4YcgQkzbiHBgRhxmThuAs61Uy6RZG+wSz2Y04tRHdy7q4uNjZ2THlh1V6G6O70YFM0jdlGSuUD41Pe0UQJPKR4yXGfMU/n+bmHDzKMk041/B8ZDI76sg0cdZfcW4jzoHha9BiO5j5NARnmcyOOrJoGJkxaDDRGr2R5RGzrW41Iof28iIT76VJoKcih5GxZuEBBYlfK/JwiAqzMi9RwSrGfDGfq5VxuF2hAmpKSRnnawo6GXk4VKlkkKjhMrUZfy5L35udnR2rKZag0ptf6QdE3OeVVSQbQqGN9FvfrGxoF30QfkYIJSowJqiwd4Dcug5crZjg7AqlYBS9R0UoCSq33sN7LPGhSm10shvJ1Oan8t4ou8L2FpYOsUbeVHaxvpM20QeJJIilWeGluRFj+kTZXyEwAHAAq96jOuWVsxvJHkN2jcELDdQOQB5JE5xl4aJQD4Jd7FU+59ZHLFW4OUCFqDBbGmeZSzjXg0J/5d1PZzCMJX1w6dGXucSsS95rVb9kdFnK2E5tYlvJvQXnMAooKL246swo52ZVk8XdXm6s2EvGApWpwfmInHWtERydVaNxN4QzQ5xlkli9kHGWWS3BnlFudcWTSLIszjHhRibZPanJpjozKuvd0YtR9244kJm14itIbKAcFWZLC1HGOSqY9FdMvJ0k8zKuZdUnyBvCpUdZphZmlpzhKdMpf85dFn92iJPTu9rvdK8mfY7uVc8NFSshsyqjie1lVjaqRCwxkdUC5Q5h1Ap5jTHI/MrIa0eE/kpBZmScMGqI5Gp1ammSBc6kKUOXUQjn+0xiSWeoYI/YsiwAQEyw7ToBAF7AOAEA0ILtUCGSGYMAAAAAAAAAwASpldwZ0loOUpC2NpWQcZAJlF5kxKBOINMHoQjZJJlAiWZlItOHc2AgzMKVCZScZcSg6jh0Cy4JcsZgK54qukodWVcJmdkajkDWVUKmHEtDSE4D4BMViLFR2ZASMquyrpKzTIDkOGHIFuc2QmA4lg0pIRtVcu4WBH2Ce8KbMTjUGEPb1WRgFM0Kb23nLAPMiSAUZ4XZvjrEZlWTIZYmEUH8YLRjGwQJgsQ24WVZkri5kBuXNb+SlFn1x54sIDhXo9mQ4+CPQQIKRc49zDyDxwhejsiZUS+xpE9A8SMJ597Dqj/eZQHBOUjiq+0m0WZZAiI7aTkfjksZQ5eCkLFyQAEjVjg3EKva1ncgXBlDlxzIvMeVGi7PmrqQ6PsiBTgfjpcgiV5mlkD7nyZzzLIk52uandbJZ5KoGLOV41LG0KXgCLFyjFiJIHi8hyLnOoy+h2F1SnLAZYXUhYTbF0UGwzrkfL7PM0icMccsq4l+eDVL0I9pydLsyUCXCJpVv/UjSwm4od+OZktD8IQL5yDBZcgjnFsc8cMfNKsa4WVZQ5Xe2o7runHULt6a7eVFBpRhVaVWo0JTxqqimGC10+bcw+AnZ5d4aUoO8QPI0zDGiA9+jQJldohTte6qrtAqKRtSQqYm6yrnIxtSQqYmG2JXenlWDlGBGEPXMSobUnIwyko2hPw4oWuLc2BwjsaIZV0lZMzbqxf5oYJjQs2yJAWTZKCL2RqOQDYrOFTd1K6Tc/AgxrpwbogIZFEydZwgqZmVbFZwbgjOsrBAliWFQu8JAIgYtl0nAMALGCcAAFqwHSqE91yWmN3d3e5tR9sy6rvXCZmkzH17cZaRXNXNKjI14dzcnGWEPiFGGfE+2d30CfKGODclZxn56xa8GJ2JjHiPT3gSz72sbjN4mUjaq4Ssu5FJe0UQJLFGZi1W/oGKSXNzDh4+sl4lZFZlvUrOslpscJwwZIhJG3EOjIjDjElDcJb1Kpl0C1OHClaJ5F5Wb2N0NzqQSfqmLGOF8qHxaa8IgkQ+crzEmK/459PcnINHWaYJ5xqej0xmRx2ZJs76K85txDkwfA1abAczn4bgLJPZUUcWDZFkWZqYbXWrETm0lxeZeK95wmFkrFl4BEHCLRQD6mEkZV6iglWM+SKgWDIbJPp4qTpncAgMztcU9B7ycKh5ySDhTwxZlqDSm1/pB0RwrcsHyYaIQGYPhJ8RvEcF5xhjiL2xEbeuA1crJujXaiiBEW6QeE8puXULCjKzhBtLtokhy/ICfhepiP4AdUCQTAL1oEC4v+PipwpnxH0PxwhRHpQpUDlR4uWiMMNYiiHLknzKjbMsXBTqQb9O7BmNQBYubg7QXihyjgqGMcb5ACWbNbLWlyTKjshL/LhxwJnMJV5COoIgCSUyYyKGLEsA5zAKKCiduWqvC9AvIQKZVVi56iUUJUsLVKYG5yNydtZEcHTcqlQNbjXMOTA4hBnnIwo0SLwYjaP3UCaSLItzTLiRSXZParKpzqjJJFE2yqq9vMjmEyTyVnTszirGOEcFExkTNybJvIxrzcaSPggM2zK1MLPkDE+ZgwtlHJEZXDK2Q5yc3tV+p3s96VO8I2SsZGKlWaPGC4TMtqwW2OsQJJWIMchGZczdi0MW4jjBl13IApKZLVByiGXWqEeZzlDBHrFlWQCAmGDbdQIAvIBxAgCgBduhQiQzBgEAAAAAAACACT/17YA6zO9dTpKJlXO77RuNTKxELBkniKjgHIpGZAruQcZBJlb6iiV9gqh8zjKxEt0CZKNKht2CM4KcMdhsiZqucj4y5u5BxkHG371eJKcBcD604Jo7uOCBzKrMo91eJMcJxv2BTEbG3D3IgpYJkBwquCe8GYNDJ/bQ9jnImLgxSdbabra0qbvPQcbEDRsgeMw2d1jB46W/8uuMY1mIfYK8IU1/JC9kajJJo6xkTNxAtzAfGXPCy7Ik4RwTgV5mvBydWmmcD5xbbQfqtj0rnCvEWXObLS0CGQcfOBy4F0NmUXPby1EEGhiScD46dAtG4HbueyHaLEsA59htygS7SMo0HdCXhQvnWjUbS24csIfLUOR8oTLb3KEET7gdEefq8tL64Q7v5pmAofeYRCjXDkmZ/olstjTOzDHLAvrwmfNqiegPMBpctpSkLQSPPqjqCtSDGgy7BS9GERgCGAaJWZcQJByYY5ZlNvIUZIJdzMqGdtGXgQrEkr4MiEFUREkoQ3NnsYTAsI2XptTvFuz1RWAS6BbUCC/LGqr01nbvw18OcK4Eq1XK2VXEkrxMk4D6BFb1Jg/nSlCTcfCBlSw+rAaG2dLibkrO923QewBThJdladKNod6osh24kkZ1ZDI7Gi/Nl4yJMw6alXMsScqM9+NmB0C+ZHyaO4IYU5axcmbOIaePl8BgHmZ8WlxmR19GlWVurDCRBdotuGeHOB3JrvR7MKjxVNyo/5USMg6yUaXZ0qYWCJlfWe+O9V7iDmGqM/JKyGYrY+7eHGS9O8qPE2z4I6OcdL0z6B5kDmTM3ZuDrHdH+aGCSwLOsgAA0cO26wQAeAHjBABAC7ZDhdnNGLQE53VIOctmRWRruTqTAeLdQBEE9qzg3PrO2stLNDKHc4sHGmYBwbkhgm6veO5ldZuhd1+zsq4SMjXZkDICWVepI5tVZJLeD1QRhGJXCRk6IjVZVxmijLTvZVkNjBDDrKuEbD5BouweKxkxvpcVSZY1lOm2ducsG1JGIOsqIUMsyShJo+vk3ECcZUNKJlEBGYdm9RVLtVg5y+LcRhHIhpReugV0MkHLhpQy3QKrLAszBs0zFENi2dBeEchAF7Ug0SwcQRIHZoOHQ1RIguBRxk17cQgSAYgfeThfeswaBcpwuBLxJ4YsS1Dpza/MyoAyXtor7iBBZLbQ7/3NNrfVpDoCzJ5QXlrfSyxx64jiQL8pzZbG+QoVX5g5a1azpXm5YAEZYsiyvOBldCWW1d+aLU2nkKmyyGBYh1NtxRck9qww7BP8yhwUMrW0UDoizpUTbpA4MxRZmHkZnzhwyZJMEu9BwrkOjQw8mDCjLMvsNE3J0lzK6m/NlqZTyFSZWRSMMmzWqTKztuILEntWOEcFw5bi7Lm9euDsp/fKsVSIe0PN0jhXPufxiQOXLMkksdd7mC2NoYzPM1cyxJBlCWpcoUX1S5st+uePQkOYNapWgj2ZJIjMFl5C0ao/CrBKbo34EKiMmz+zxVm34MwfezJJrIYZ5/6Q8/jEWV8EZIghy/LFUCC2ts9HBrpodmpqNcw5SBBL8mhWqWRpZo1ybu45xxjnk917kCAwRrd76T0k8R4/4cL5ohBNs+4QJ6d3zb0HQ7Bja07nkNJeaZB1lRHIBErI1GR0vROY2iFQOFGBGOsqWRnlIBMo5xNLZHScMGpoVMYhzCTdizswZtstYBhTK3WGCvaIKssCAEQG264TAOAFjBMAAC3YDhUwYxAAAAAAAAAATPJT3w6oU99JFOesnGW1krNsVAkZBxmF0Pq2f17i3EAxRQXnGIPMkow8BYk+nGt1Vk2JTiY+GQXbLTgjyBmDrZmaFV0lZ1mv0qxMxz3I4pP1KvnE0hCS0wA413xwzR1c8EBmVdardCAbQnKc0Guo1xZk3Y1MugV0MmxlvUom3YKgT3DP7GYM9gaQe1nvjmZlMjtGI2PlDE8Z51jSRNMKkwYyK3PQwzAJHvQwUcaSPm76qNbucfRFfLqFsDoZVs5EECRuxg+2CS/LkrwKMglEHZk+nI/Oal1xdpVD/SgQotvx9QncrjqcKwE9jBEZB0NmUXPbSzLGWaYP56OzGiQRyCThdu57IbwsSx/OsduUCXaRlGk6oC8LF861GlksacIwFL1cqMw2t/eoYBVjNuBcXV5aH8M7G8zzmhJ97+EFhdZ3Vhpn5phlAX34zHkFMwehCAAAYCq4dgAHzDHLkjy17MkEu5iVDe2iL4se70EiKeMcJLONJbMHbjYqJEsOJXjCjTHO1eWl9b2cNdHjZeARSu8BJuE9lgIlvCxrqNJb23FuE+9KsFqlnF3lFksRH11AfYKzevOeATKXcfCBlYyDIbNYDQyzpQVaw5JwDnv0HsAU4WVZmjAJ3N4dzcpkdoxGxsoZx7IIYkkTswOgOGQRRAWrUOTscwSxZKOj8BIYzMPMS1PqHFRYfRErZ6KMpRDZIU5Hsiv9HgxqPBU36n+lhMyqbFQZgYxCaIigZb071nuJOwTiHTyIsSHZqDKCjoiMVt2sYql3R/lxAvEODM5hNkPZqHI+MuLdXr07yg8VXBJwlgUAiB62XScAwAsYJwAAWrAdKsxuxqAlvKxCy1kGlJlPLAHmICqihHOfgCCJBi8tjviJkqCbNap7Wa2WGNoXMoayIaVZo8YLhMyqjPR+oDIbFYgxyEZlzN2LQEZhjhN82YUsIJnZAmcVmcT4XlYkWdZQptva3axsSAnZqBIytRqOODJ7laTRdXJubs6yISWTqIAsgmZVltVi5SyLcxtFIBtSeukW0MmYkg0pmQRJLeaZZWHGoDpDIdXaDhkYRbKGzZbGSgbksVqHXqIC2IbVyY4g4Q+HS48bo2AUzfaaebcQQ5YlqHSFINAvDYiRrGHOMgFmZZIgMlvot8J8ooJD8Og3hGRpZo16DxJcrSbhLDDMlhZBJ8OwcE2jnIPEWSwBGWLIsiThPIIxIqu/NVuaTiFTZaHAsPUlZZJBMlWm49JUmSb2rDBsbs4yzh2yPTgPhRnKnLVXKLkHwzaSlE0dnzhwyZJMksj6oii7BSPMKMsyO01TsjSXsvpbs6XpFDJVFgoMW19SJhkkU2U6Lk2VaWLPCsPm5izj3CHbw4ufDFtfUuasvbxUuL2SGcqmjk8cuGRJJklkfVGU3YIRYsiyBDWu0KL6pQExkjXMWSbAS5AgMlvoN5aXPmG27ajfEJKlmTXqvevA1coGzqLRS/ygyxLjrFnNlua9LwJDxJBl+WIoEFvbIQNd1GpYrXBNowgSfQK6NeElKoA88+kTjAcJok4ezmFm1igYRfMMZd4t2GaHODm9a3SF1qF9W8pemdnSIBuVDSk5y7pKyMzK6HonMKlDUHZmSImocCwbUnIwqilTdo+PUV8y0hsnKPszpEQnA9mocj59kS8Z6Q0VrBJPluUXSVcjkAHbmG2I0GMp3D4hAthGBdCBc58gI+tqEFoM8dItIBJsw3Z8gixLCoyoAABN0CcAAJogywIAtGCbZbF+Luvi4iKsFRsBAAbp9pXoEwCYM73jJ3QLAMwZVmlVC9ZZFqH3BGCuDJ346BMAmCfisRS6BQBmCOcUi4h+6tuBcepBFed6BACYYvR8R58AwKyQ6RNkZACAaAjifA8gy6LrHSgAIG5kOk30CQDMB8mBFLoFAOYD8/yqIowsqyKICgUAOAN9AgCgBboFAAATuD+XBQAAAAAAAABhgSwLAAAAAAAAAEyCLAsAAAAAAAAATBLSc1ld8JArAAAAAAAAERPo85ZBZll1chVopQMAAAAAAABkCHTkH1iWFcTq+AAAAAAAAAAj1CN/5q8hbhFSlhVWzQIAAAAAAABMcXFxEdAdl2CyLKRYAAAA+LIp8nV5evpyufyQKFllKRUP1+WSaJVlC9/OATAdQUiv1vk6WWXpYlPka1plKUIcOKN+/zj/vCCMLCuIqgQAADBbinWZrDI6PU2yLK22lMtVli2KPN+saF1uNwMQBoKQfliujrIyzzcJlcmK1kWK6AaOqW5qMc8OAsiy+FciAAC4AQurMqS6QqXZalMUf/jP//ynw0NK0nRBdPryaU7LZLWi9dNTKjZJurj6xR9NyQEvowv+TT8a0kcpFXm5ytIyr/bYEF3GdihHByKAf6IVQJY1yn/817/Un3/78z8JBArfAgAAHzhfTmbOplivKSGiwzS9/Fl/+eGnl5MFs08/3SwW1yZVoSlnSyhNLwjp4uHD8vCQNkREVF7bK5SjA8ABO8TplOimpDJJqjjLkv+2JZj0e0zl5H+T2OUf2+mk8iUri3X2NSgmTjEGAAAAAADioJUpsLq79RPfDsSDTIolL2MO/ykBAAAAAAAA+IJ1lsUqH/UIz0rg6RVosimKjSNLeZ7njmwVeZ7nTg5sU+S5M2MAAAAAmMrU2VUuYZ1l8eFiDPHu/xgWSBbY3TjVjameyxyypFej9SPJZc7QSB3cZREBsinydTkuM2OLVtmK1oUTWyVRskpcLBu8SLNsRZQEt0bxxkVqWJ99tk/D7YlvPZO/NOQujR9hUxQbJ6l+o4atmrkq33rXXdly+euPESq3bUfgZUM4+RWpbnQX0ZU7ii4ApEGWJcWukK7+HxcXzf8EswTly3TMpON1Q1mW5WazKctt7lCsy9LNyD5EFmm2SlzZWiw2REROLm2rVZaWa0djp2JNq9AWKN7k6yTLyGoV1Tm87WT+ypDlTP7KkLs0XsYf66n+1pD1sNnQqirfwQ9Ala2nTxNnv/4Y4dLt/3FqNQK3DUEOfkXa2ipcRNeK1oXTnxcBGAVZlgE4JEUu8Xe8p2VZluVp9ccmPz4lOj0O5xIaL0WelyXVK/lapVyvi6IkN6PgDSUr38PtySxWSfkwPz61mWPXObztZP7KkOVM/upAnKbxEv5YTvW3hqyHzWJRrf29cPADUGXr06PU3a8/JqjcPvx/n1qNwLohHPyKtLWV2o+uy/7B5c+LAIwSw0ruYDYsV2m6oOpe1mZNh0dZSkWeb9IsuJGwExapo9swaZYRkRtjLm25q0HTHCbL0knS64wizykhB5l8uV6XCVHCpuUdpvpWw6Z4+LRa+3th/2gqW8cP88NDcvPrjxEqt0+frunQYgReNQRZD63aVmI7ulz1DwBMgvVK7pKrX3hfyf2is4x790Gs1rd14RdjD+21KqR3e5OhldxH9aOeDJmW8QoAAAAAAADjNPMFVivn4V6WFFMbbNJy7b2Fe5+FaCZGN0VR0uU74wEAAAAAAJgHyLJAP6NpnkQattlQQmWZJBsnk0QAAAAAAABgAbIsYI8FUUEJlSV172U9evTIh0tXPH782K8D8nivK6CMfpih9cNC0OJoyoAwcoFAi4fFaKOPPoIRn0ys9CILC2RZg8g/p1QhXrG9KWv+OTp/tCmY6tJUQ/KlNYsSeLVYpIJ7WM+ePZO3aJb79+/7Mq3GpLq6ffv20Fdv3rwx4Y4HWwJDLm1NMmQqzDyeKUAemeZGUwaBwQsEWjwIRlu8Ncip/uyOqeKT0cDosVfWLVBHFkeihSxLxNQ2Frx9eGrJQ4KpOyobmoRyIWdnZ/Li/f19wbevXr2SLGdvb0/eKB/quur1v1mT+/v7Q8nA7du364oaLWdUIzbULMqZLRlDmrYkKzDQMAMAANBk6Hfk7oJtMjKBFQWZF6NuiCPRQpYFGDE6RBaMfeULmUSrC5NZ2lFfNsq/v21v2dvZUzjGVjn/tqOoEbO3t9d12JItmULk/dG3ZZCDgwOLpROdnJzAkKYhSeI78PgMmSW++rFtyKUtS40+hOS8IbNLoJk16kUWKMiyABe4jX17z/zujytmZQAAAACICS+3jLzczorgHppZkGUNc/76xfNXP1zfdueDB6tJ84DOX794fv7+1U5n6ydffbv98tb+xx/du6HtqNgiNY6k6X7vxr7tRuohIjic9t288ezsTDyjsqaSVdPeZPLPXo2MrVpzdna2t9MOl947b/q2hgppme71x1IFAgAAmDOSYwazQwsvRkELZFliVLOJOtW5ce+jB82Nr25+8ODBZYln6yfPX5Aw0epJmcScrZ+/+oHutDfd/ODBR3tn6ydfrd+tCuvdOLzdRVbVO/YluUE2TRxnO8DeTzWCmYGjazPUgv39fZkZhr0awWNLXUPVZE5ntiSnTQ7JjFcgAAAAEDqSa57ZkwUKsixnnL8+eUX7HzeSlb3Vx/svnr8+u2cmganuOd26c+fWt83NZ999e2v/4z0i2ru3f+v5d2ervb3+jUNid7gcZ4vBtGMAAAAADNFdbEzmWh+BDMiDLEuJq0l0jUl/569fnJzfpG+/3c6u++rJj/sfvPvdV+fvP1jtnZff/XDn/Y+u37Zq3umi69MJ73zwYEXr569+qMr5+KN7N+qvB+4s3Xz/4wd7N85fv/j2vOHqjz/SzXcrszdu3qTvfjynPerbeGNIPEfQcwEAAABA8wpuduaebVnvwTKRhQiyLDHffvWkcWPoMrupZ9VVk/7WN+uc54dvqZoQWM/0O3/9XfXVxfkPt24IT9Oz9Vff1haefPW31/c+Wn28/+PljMHz1y++qgo/f/3i+YvX3YmGNyzeduqtByACU6IBAACACKiv1OJJ/k0ZDV/fOcvqr3jKggNZlpi+fOL8xx/pzvvV1r1379DfLm8EERGNJFI1jbtW9d2wvdWD7Y2tvXfv0I/XjZbf/XBp9Ma99++8+lt5fs/4whnDOMqrJB/BUihE/m1ao3g//4dqaeqbeWUqSr9F3rx5M1SIcVtDhUgaslGBAAAAomHo/byjryqFTE1GPJYcUwZZ1nSu3ZXavXHrh/MLosuE5+bNocznunBv9eDBiojO1k/+dqW5tprfrc4IrnlDqftt8Mg8fzVKbwnNt2nJ0/xlpbXRnkwSlxUVkC2eBwUAACA+mhd0wU2YKGW9Si8y5iDLms61fGl8IuAlN5J3bz3/2+t7e0N3oM5fv3j+3bsfP/joBrWzr0uUbij1P3Y19ixWc/u52EDkeJkqDQAAAAC2eHmjJh9Z744GZdHwE98OBMiNmzfp2++qdezOvvt28P7Vjz9ey09u3DvYp1fPX7yut56/fnH17iy6OP9hW9TZurG9KudG8u6trdHz1y+erKXX0dt7984Pr16fEdHZ61c/3Hl3b3CjYPuM2N3dlekFvMgAIKLf/OafBf+OClpiHVtxG9K3FcpRu7QVoiGDHB+f1P+2/pz67yRbczBk1tac8ZJWtWRDewU3UsK9rCt++/M/yQmrFdifPCGqnqrqSUVuJO/eevXq+ZPz5pMbN+599CB5/eL5k/rBjTvVGhpVqff2bz2v5gTe2v9g/9ZX5xdEe9tyPniw+uiD9ROh0UF3P7jzpCr4zgfbd3X1bhRsj57eM1z5DrtkafJGAQAAAMABwVi/eS+Is8wswSU/zoghy/rtz//0H//1LzSQJtXfivftobXMevure0J9Q3GvLers2ffVvQedjduHucT0uN2741Bpne2Ceogd5TvskqXpyAAAAAAAFPAywW+GyVgMWRaN3YbS+RbMAQ73xwEAAAAQNAoPaeu/eFOyNLNG7cliYoc4zVBq/YqPH/Uj5tGjR8+ePTs7u3q+zMgag73cvn27ub723t7e/fv3Hz9+XG8RnPatgBRYkblfryCjTl05q6g4bPk6qG6YqVG1PhEdHBxUW1oPk3z++d+bW1p/ivn887/Xn09OLh9XqA11bSkTkKGqAmWqsbZVGbp//z4RCVp8tCmVaR419R14b8zIH+mQLeZNqWzIyJlLfS3efCjo8PBA5xmhw8OrquitH1MPIHkx1GurZaiqwOa/arZOTk5GT94uMpkMZMZlXWWtl3ynmWOw+gUAIub2uwvgTzUobP7b3N4rGPpXwZbav2EZkhTr4/GolT3hfFCWDBmkGtzXQ/zmn1P/nWQrVkPKnlhCebVhB8sU2zbqRsYnfZIkkhmDAFiCVf8CAAAAAO+03oEpzgpkXvdksMDu+zk13eMsYw6yLAAwQRkAAAAA0zD+y6nBAr0Y9SVjC7IsAAZBnwKiRHm6lNW5WHymdbkklGM06KezSYNRYmkun0uvPBKKn5Ehc1dNXhYWWP0C+IHV6hc18vemJd9tZUSG1S+CMESuVr+wRO9z7TAkb0hh9Qur/sCQsiF7q19YIr6GcGlLbfULIIPZJTHEhniufoF7WVbYFAWl6aL6HxX5uqRktaKn63JJySpLF84KERSf52u6LOjqM/UZzVJqC4g2xcN1uSQTrvCB+R12AAAAAAAQBMiyrFCWZZKm1f9oXSarLKHNer1cZVmZ55s0k0lLjBQyRJGvV1m22Gw2GyrW61WWLajI801Cfzgu6Si5ZjTPm4IySVMiKsvlKtPyIQjM3umO8oY4cEP9yy4MsTUkSXwHHp8hs8RXPy4bItBGB4Inz1u3nmRkgYIsyzppttoUxfq4PF2eUlHQKRHR1OTESCE9LBYL2qwpSYmIEqKS6MNPkzI/Jvq0Nnr8cnmYXQlqTtdFkVCSxnMrq03r5B+a12dWBsAkqrku8lRTmDgbmmorCEMyxNeU8RkCAAB5kGVZIU3oYVEsS0pS2hTrNSW+ChEUnudFQiWtsixZP8zpkMpkldG6pDRLjn9ZUrY1uvzXpGwIjtdFkSRXzmyM5Hv8kFwA0KwMgCG++OKL7sZPPvlEYbw4VBQHQ2q2/Bpq2lIuJL6mDNqQWYbCxhSjoR6cIZe2LDU6ADSLLGtTPVyUJGVZnp7S8nD7cFFS5utqS1LdkWk/jNTOHVoDZdFdiDQ7IqI0rT5n9efmh1GMFDJceJYSUUpEtMiO6s9ZRkSLoz+nRLS4MppeCY4ubdcfZobkLWyzsha3b9+euosyUdpyeVBWcTDWcWzIpS2XBzVKfEcdnyEA1Jj+sEDjyfnNtcfyT1/+b/rw/yxplWXVM/W1hiQfknf25ILgdTVNu5KyQIk/yyq2DxdRmlKeJ1m6oCIvS6I0y7JqS5nn1HkCqv8Wzdvthx2XBzELXr16tb+/79uLSzjfyGqtmGeVKG25PCiDfPLJJ0Ojye4P+a0JVM+ePZOfUqVpqLvRhiGaclC2DZn6Lbz3hszUpmw6M3Tg8RnqtaVzFlhCJt5kChndy5Sh0R2NGCKJg7JkyN2NrO3ocXdn/KfVovUwfOOx/IQoybJFkeebbEWXz+knVCYrWhdpNvbj9+7uLsaxLok/y6qfaEqOsmrLJj8+pSUdF713hJp6zYlwgrH1pOUpNUsIiECHvwB455uvv6k/v3f3va7A1BBz1JApxIYMPlfjzNAo9+/ff/bsWe3Pe3ff6+YJ33z9zbO7uk05aqg2F4qhCmdngQ5GziCZA2FyqsogeZY5M+SbTdl4Wr71WP7py5dEtExW1Qi1yMtVlpb55Y7cHuCoRqqjd88kZSESf5bVeaJps6bDoyylIs83afWF8SegqlgZeifP7du3ZVY+EBciv3bCo0ePRjXGCf29E4Jb2PZkAKhx//79Z3cvx7JDQ3MjwywZQ0RkJg0YNlRhLN9wYigsDMaMM0POzgIdZOJNjOSBmDJEY6ezvqGK0bPMmSG77MgM2xZZss7z8vTly+W//nlT5NtB6XKVpklZJtvlnYuHT8vDQ9oQ0fW1yYa5uLjY3WncznLCnF9pE3+WtWg+0ZRlRHQZn+nlH9XnwSegprO7u1u9RE/w7MfBwYF4cdKqkJOTE3Ehkk/1OP79Ju7hCN6UBUIkplSheXskDkM19VBSkMSaTS8FA9awDMkQzVkQzYHQlLOsmWhZNWScy9xG/opfPTlfDVDp2qB0cbmRiCg9qp+Tz+jy0XkLzkzB+FttamWgg6X4syzDSE9j5faGh++//96NoXfeeceNIdv03oDqnudmZQCoUY0/qO9ZFLMDC1aGDKYBXUNNYhrUjhJuEussOHWQibchJh2IKUOSd5nUDDWJO9lmdbm35AxeftMFWdYE5Fu3m2JVd7fqbyvB0J2oKpg0CwH6NOcKCyrZrAwAszQnF1l9LsWLIXtUUwDczzGrxqy9y4qYrWG/hiriC07bzPwsE8SSWUNgKm7WDAtuxIssyx0nv/4jER18+avqzzdv3ghmAw59O6mQLnfv3pUXT+Xrr7/W2d3qAoPy62p0z2EHUwQndRwuKyoOWx4PyiW9Iw8bgzAYsk3XtLwzX3zxhfyLhjwakrfVNDQKt6bsRdmfqTvGZ0jZFrcYmA9W32rDH2RZrjn59R/pRGUhhIODgyrF0mRoOQ1NjLyAyK9v9W8n4ttNkq9NmyqbdI/LZUWFbsv7QZnCyPtwxUXBkJqhSWnAEMaP2rshG7acxQyYCZNOXi9ribWolhbj4Ak11jnj/PIbv8woy9q+c7ig9PLFbdstD9flsnr7G+V5efmCtzLpvN9twluJr9Oc6Qd40j2re39Z6ZVRJxjMygAY4pNPPpn6G63aWjjODFVMshWEIRmm1rDg5VEcDMUanGCePHr0iEnYPH78mIMnzZMOyzIPMZ8sq1iXJVGalGVyuVRLvWW5yrJFkReblOjl8XqVrsrj0/LTvvVa3m6Xv9zB29wiIpoZwCBixD+4Sl50q+uiuCgYUjYkiaAQ+cGT5oE7MyRvi5UhszizFZ8hx7aAJNXNg0ePHoX+2h7bzCXLqt9EnCy7W07XxcPT48OjIyrowyWVRUnLpbA4MEtwTxwwZNKPmjq/gDozNGl3JoaMTFiIrynjMwSAr9lJ4hXR/HoiQO2R9aHbWcH98D2TLOvqTcS/PD79sCiShMqrLcsvsiyjy5cUr5LyKa0OJV/wJsfJyYn+yXByckK/NuIOmIDZBzdn/hgo0MH2BbW+cMKQsiFJ4jvwaAyRnbewOHM7yobgdv6CXvBWm15mkmUt6jcR/3k7DTDN6NqWxkuKj66+BnPHyzuII+5xAAAAABAf9dBF/EuxWRlzfuLbgcDY2bn8zz1YQsM7SKVAcPzmN/8s+Fdzd/l/rRqahPKORnYXlGbwGK16ZbCoUGLGJcfHJ5L/GizKmSGX8PFkhvSuHCZzC0tSFhDIsiZwcR35HZEgMWeoNYM+t0GsjA4fgxhNGsRSDjC00QtWE5KppcnbYosvJ1sD/bmN/q2mc1NLA25oJk69SdQkWXAgywKAaGD2cK+s+4ymzL46MgAAAACAsOhNlobeYSOzMThm8lwWAOPIpzcySswbBAAAAOLD/YIZgilRjp3B5KxJ7BCncV7rEbdAn3jrzb8PDg5Ofv3Hyz/+5y4RvXnz5vbt270HuLu7W33b/uL/XooPvvxVdV4JCqmpXqX3/fffE9Hdu3ffvHkz8YCkuH379tdff01E77zzzv3790dfoVB5dXZ2Vm/Z39+359urV6/qP/f29mQ8rJF8U7BZWZNWXTmrqDhs+TqoqWE2RP0qzPra1prm9Pnnf29uaf0p5vPP/15/7l3Ry9SUqoAMVRUoU421rWoV2Z/97GdEJGjx0aZUpnnU1HfgvTEjf6RDtpg3pYKhypaRM5f6Wrw5me3w8EBnbtvh4bXBbneNQVMT55qGehvChqFeWy1DVQU2/1WzVbU4CU9eut6aJycnf/nLX+TNafKLX/yiMkpEVXBWAwn3nlTOVKZHezzxzajm4hYyMjHNfIFV7oAZg0REm6LYXP2Prn+8Yvc6Tl0EPuhOFB66r21QBoCYalDY/Le5vVcw9K+CLbV/wzIkKdbH41Ere8L5oCwZMkg1uK+H+M0/p/47yVashpQ9AcANyLKIiMqyLDebTVluX5JVrMtyXfRJ327/m4KRG6y4S+sYvIMYAAAAAMAszXtNMou5hwuyrIrTsizL8rT6Y5MfnxKdHvemWWDuIPsCAAAAABAQQY6kD7KsiuUqTdNkSUREmzUdHmXZ0WGZd2cNgnmAVAoAGQzOvPI1iQt4RHP+HmIGgFiJI0nD6hcTaI2Vh3yztPpFswSsfjHVt6mrX5h9alPz4U6sfhGEIXK1+oUlep9rhyFJQ2qrX9jzp/oAQ2q27K1+YY/u6hf2rDgw5NIWVr+Y6gzJrX5R0xwCCQY8tUxh5M929Qus5D4Bv812cnJCvzZQTs/ShUSTBp29JRhhqGR590z5dnFxIXMDyqxMHpeNqGlrUos4s8Un0gAAAICImfOLbZBlzYvqdlOLu3fvypdQ37MyTuuGQ83+/r6Rckxhtr9Q6FYEFTUp0ZKpqF6NpRZxZiuUSAMAAMCQzz777K9//atvLy7h4wmpzvnSlHEGWZYLTK0x6Po1ePNG5z5Vty8wfjsLAAAAAL743e9+T0S/+91n1Yfm5+aHrlK8S3f3zz777PXr12JP5E0r+1M78/vf/77Xje4gp3fynlkZc5BlATBIdT6PvkfYrAwAAAAAQVCnIs3P3Q/KG6vcRt4Ng6ZbG8XOaC4G1l2XQUbGnwlZlvIv8RxqZFM8XJdLolWWUZ6viZJVlpQFpSnlOWUZFQUl9HRdLomSJDkuyyVRssrSRaOQCO5dDlE/ZCKYcubxQZRR96z65n2KoDxVPThoRJcB47L1nVUgAACAaGje+RFv1NlFvihTptX8acI8L7Kd2khlWZUTb99OfBfvlp2dHe9VXJbLVZYtivyXD+mLo2xBRZ5TQutNkhBRQVRSSpWGqMjLSlxs0sXiekF1HexMsF6tQKV5CKZWv+hSP2cleEDL3uNYNXt7e73bm2vrCXZvru0mKCQOusd4dnZW14D4Aa1JFSXWCFqku66j2JCOLbr+iJSaLUsVCAAAIEpaN3Z67/OI70Qp7CJflCnTMv64fPmNqbRNP7UhiVxrPMva3d1VdqLi7du3kt5Y5PTl05yWSfLhkhZERAlRmSZJXtJqRWVe0iql8nRdFAklRKfr4uHp8eHRkXlHDr78lfLjVQdf/upqOfgY+fdOoP3blGx2qBy1Qtiyt7fXrai9nT2F8b1MRelXprzDNmx1C3FcgQAAAGJi6MEkewh+qXfvTBeXyzKbSrH0UxuSuI00kmXp+1F7UyVa3lh++GmWLYiI8oc5HVKZrDKi4nRNWUpPX9KnGZVbbUnLVZpllOebNFsMlzmRgy9/1fxTMPVIEGHdQrzfJzSIqUGqqXIkf3cZeumZ8r4AAAAA4ImD14VJ4sWT+lVmgWIqtaFtdiMYyLlb/WLUFaukWVZ/OkqJKK3+OMqIiI7+nBLRovqGKE2z6/tMpn5/XE3rz0ogrg3JQlR97MfjYycydxJk3DM7Zat6WaGYofvXo/tWrzhUoJtGto5ash1l0lGxxqAhl7ZGNWaPCwAAQBzwyTH4eCJA7ZH1oZsNwf0wLcqyDGZ7FX4TLTNIDKp4rtn9zjvveC+hy9CzWH6L4on4AOUPX78cSVujMme2TDls0JYCzi6oMKRmQuYXmVps1RkY4kZ89eOyIVg1ut+7WN2f2j160urxmqsotzYqyKhvLM1krmALcWqDldwnIN/Ao4nW6I0smVRttJAa+cu/S3h6xRPU1ZxB60cDmnJuoMVjwntr1g4w8eTx48et7XUSNTrENSjjjGhRCuMJH409KNatyqArF0SA5JOaajsO7QsAAAAAVjx69Mi3C1eJjXdnuimWL7rv2hInGi5TG2RZAAAAAAAAgPDgnGVhxiDgzibPy1WWLjZFXiZZUubrcvt66e32dUlEp6e0PGy9SBoAAAAAAAD3/MS3AyPwXEkCuKSkl8frDW3K49Nyna+TLMuyFW2a22mVZclyiRTrGps8z4uNM3OFK1ubIs/zwp0th3Vogk3VEJsiz3Ornm8NWQ+zTR1almOsWXWOAkxIwx+bB163oO2YuTJkv2uqTTjrl4xQuW07Aq+1uIOGyF1FV+4ouqZyzTe73fIEZ8I6NYZhPuVNlGVdXFyYfcmV2gKDVhOt3S2Wygcm+HBJZVHScln9uSnyp+ty09kOrrGhVZbR2lGXXhTHV2+cs2tpXa5WSeLksIp1mazKNYcRtxzbG7tUrCnLEnutXxuyHWa1Idsx1qg6dwEm6Y/VIKxb0HrMbA056Jq2JnJn/ZIRKrc/+e/HViOw0eLW+7cNrbIVrQv7PdLWkNsLnxTXfFuR3wvK1gd3l2yrKKRYjlMbd/eydNZwt5RoVWW+9957xksGZlkl5TElCdEqoad52d0OuiwWVOTlyuB7tQfZFHmZHNq3Q0S0KU+JFrReu7yIMrpgi1mk2Sohok1JRJTYOze2hqyHWX1EtmPsquo8BJjAnxpb/mxbkKzHzDZUHHRNiwUV+TERueqXzFC5/U//a2k1Ajv1bzHUF4vFhoiosB9dlaGNwwufLA3fLj94d+blH47DOjV6YX4Xq2Lkuawq59N/UEz/NVlVomW2Qqsyv/nmG4NlAuNUb4c+IqI0I6LqpdJp/ef2w0L9JdJxUjx8Wh4e0oYW1i83i3S12pRufhdbrJa0LkpKUifmKMyf+xYrWudFSZTZriZXYeYsxpwHmAw2j3vbgtZjpg6V8qn1mKlsJZSEdQJXbi9PS6sRWDcEkfXqKfKcEiJKV5Tbja5LQ4vi4UNXFz5ZrnzbfvDuzIcffhrWqdFF59ZLfTtLM7upChEnJuMK2h6MmjcyTjQNiZU2MtcgsmEAAAAAAABmzugqgvJJByllN/KpjdQag1VBahMZbdx9MlssUiwAAAAAAAA4YzYFUM5u5B2YsJI7k2ykfhV0808AAAAAAABAZFgd81vNI0J9X1ZdKVgeEAAAAAAAgCgJ94ZKqFlWTbhVDwAAAAAAAIgS7m8lBgAAAAAAAICwQJYFAAAAAAAAACZBlgUAAAAAAAAAJkGWBQAAAAAAAAAmQZYFAAAAAAAAACZBlgUAAAAAAAAAJkGWBQAAAAAAAAAAAAAAAAAAALjy/wEYkX54jbsVzgAAAABJRU5ErkJggg==;strokeColor=none;points=[];labelBackgroundColor=none;rounded=0;html=1;whiteSpace=wrap;" parent="JhZKAX3BcbJPcAhVRO4t-5" vertex="1">
          <mxGeometry width="193" height="35" as="geometry" />
        </mxCell>
        <UserObject label="" EquipmentType="Firewall" Manufacturer="Fortinet" ProductNumber="FGR-70F-3G4G" ProductDescription="Ruggedized, indoor, IP40, 4x GE RJ45 LAN ports Wireless Firewall" ProductLine="FortiGate Rugged" Attribute="Chassis" Units="Inch" Ht="3.2" Wd="4.8" Dp="4.4" WtUnits="Pound" Wt="2.87" IVoltMin="12" IVoltMax="12" PowerMin="18.3" PowerMax="19.9" HeatDissipatedMin="68" HeatDissipatedMax="68" DeviceRelationship="" PortDetails="" Gbps="" id="JhZKAX3BcbJPcAhVRO4t-7">
          <mxCell style="vsdxID=5;fillColor=none;gradientColor=none;strokeColor=none;points=[[0.5,0,0],[0,0.5,0],[1,0.5,0],[0.5,1,0],[0.24,0.39,0],[0.06,0.17,0],[0.69,0.1,0],[0.94,0.17,0],[0.35,0.26,0],[0.35,0.43,0],[0.51,0.26,0],[0.51,0.43,0],[0.64,0.26,0],[0.64,0.43,0],[0.81,0.26,0],[0.81,0.43,0],[0.13,0.79,0],[0.22,0.79,0],[0.52,0.78,0],[0.71,0.85,0],[0.82,0.85,0],[0.83,0.85,0],[0.95,0.85,0]];labelBackgroundColor=none;rounded=0;html=1;whiteSpace=wrap;" parent="1" vertex="1">
            <mxGeometry x="300" y="680" width="48" height="32" as="geometry" />
          </mxCell>
        </UserObject>
        <mxCell id="JhZKAX3BcbJPcAhVRO4t-8" style="vsdxID=6;fillColor=none;gradientColor=none;image;aspect=fixed;image=data:image/png,iVBORw0KGgoAAAANSUhEUgAAASAAAADACAIAAAAr0inhAAAheUlEQVR4nO2dX4jkyH3Hv72xEzDZwDnQ8RFyrHql45h7OHI+EmLC7Q0CgYaDeVqTZJMQcEAPepx6ycOxDH6wH7T4xXooyIEhbIi9EBg4RiAo9tYBh5hsknvYwZxk1XKOcTIkNuSCH2yyk4fqVqv1r0v/utU99WG561GXflVS11e/ql/90eTq6goLJpMJFApFN7Ka+kz6aTKZXF5ebqM8CsVeIRyVkNlk/j+lLoWiV6bT6dXV1eTq6kqpS9EKTokfGYYRRZHhunDd6OAAwAXsc8+cf4mzyPA9R9t2WbfCdDr9TCN1TadTAEqNCgCc+nA9TwMAzjjig2PXczSAEcIwiyPYnmPC4Zxvu6jdaV3zP7M+SSaDjpkp9okkgu4AnFE/iGAcGxdnPokAwLA9aKZrU3L04AIHJ763ww6sY82fyJwg7D558iQ9cufOnaY5KfYMTklozRt/jJD/MPC/1rItyCmF42jiO3ieub2CdqBjzZ9Op7Ie7MmTJ3fu3MnmJM5XGru2aI4LQsj8L/sYwUX2WwvkiOAAwqHtLh1r/noPlopYaDf3QQlMsa90r/nT6fSGTE5CvuK/Ig+F4jrQveZLCUyJSlHPtMC2S9QP3Wv+eoGlrjCXmVLdXtJCG6WnNLIzTkH2UvMbRBEFWXepOmB7Q2kVl6wYtm0HQXD//vzgq6++e+/eBzIW2mW6STrW/Ol0KiUwlN2LUd0IRRfSHzeNlaUP6bUKSXVV5PS0zkJVBHxtphumS82XDXIIo6nd7GfFftCiH7+2Xffw4bv1ydK43JjpWPNlx8HSDBqlV+wckjVeyCbrvr7ylX8WH95//y3x4eOPP3j4cNlcLJ7eKMft0rrmy3owxb5SbB9m/5QMP6Tqyn2uIRsBb5fpTqAEdt2pfzY3enKnvivV2Mcff4AKwdQ4rn1qKFUKjNOjKWErHxk9OqLzmdGMEAaeHuCU0D2YM32taRqMTtuHki4ry06M/XB6dEQElDFCGKdkLglR/2Wo8WAHf46AAeAh8BYAFkQnJ1G4oqODg8hXytoD0pr95MmTXLOtChEkRJnjSo+8+uq7qPZILTLdLAfHrud5nuciCD4FNMcWkgALYMtNX65rIhq2ETDwEPrJwdymaUf+inIN14WS2I6TFcCdO3c2Ey7fSqYt0XT8+H8AwBQKk9dXfR9sZhkBDaGbwKdBAAOMwZhreJm548L3o5ZFV4yDXAB6bTxafCscFID3339LeK30wxCZbg0e47d/A8BcYSwwXNnlN/Vhes0yznz9HPjOv//4zW96pgaYCAjlpp5N5bjGkduu6Iox0bR+37v3QTZSn5NWKr9+M90g8yWkFxfGycnNAABgusaRC/9c1oTsTA6FoogIDz58+K6IFqYIaYkRsOtcuxpMlVIoSklD8GLehkBJS9BgqtQerUfglBBCKTkSIwvzPymZDzzkByfExzQ8S7/2terTC6dNyQNyRCglPY1irJSEctar8SJz+5SlOc6PLjNMO0737n0gdHXv3gcSvanFwE461JMGvhejQSWDQPkfosxCZjApb6HV7epY86UEVrUeYRdlNt8LyXG8c1dPePqn43l2QL5XGJwAZzTEwfxs9v1/fP756tMZkBve+PQLru85jmvkxjdaFX2lJDEszPozXoqwb0cBm+eoAYzGxnE+4eUCoS4J05plRCEHD3F8HIUcPIYxA1ZGg1YHgfKX/0d/VGZhdTBpxQJvfrvS5QK5g/I1f73AptOpyOD+/eW/tD2wcxpLIujzjVk009Qyf2Jm4JOf5gYnAM10nEVIh8X//Ws3a06PObA6vHHzC5oGTv3I7r414GpJYGma1p/x8hw1MEoCGLOFvhiNLUevPkO+WahZBhIeApZlRCEPI8PSkBsNWhkEKl5+iYX8YFLWQtPbldb83/u9IK352W9ljKwRmMhDZJDl44+X4aPd0lgqA4BRyjJ/IonwyudXBidy8Bi/+2bd6XOxrVjglPi62/OuSjwWeQ1ifJkL5zAdzzWikPMYusZpcHbmHj04O/NZZ5+p6Qh8CKFEPgxLAzhdjgZ9D6gaBJpffsECaHEwKWuhwe0StbpY87Myk6n5dQJL86hKkLqyHdKY5tjwRScqgGVqjiv+pITEtvclQAxORGX6CqHfqz19cc7Swo//+vfPgMAntHuNXC2JCTAyhPElWuL7lFE/MiyE0E1ojnd+fn5+cnzsmt19pqnjApYQykWkawAPI8N1TNM0HRvf/cdPATEIdHGxciJfPLxyFpA9PUibhgsL8reruFYgh3zNr4si5rLJTjl7//23Xn313Y8//iANyKqQkWI/yFZ7UclzNV98SBdu19T8BlHEHF/5yj+LoY/cAIhCsU/k1NWCSoFVuS/5iTAKxd5QtRJnLWo9mEIxIJVzES8vL6fT6elpvqvX0WNul+0GY4qN9R0KDnVnbJffKGqQbcFlog/rnZjsnhzvv//WTktrtPzwhz/cdhEG5/bt29suQp80ijs02PSmtPclOWN6VPzgBz/YcI6vvfbahnPcIcb2c4i2m3BT6Bx0qBNYLqcqSrcN2g/efvvtmm+/+93vbqwkkPMDPfrDDWe3lrUPqX6FmluJkyP1K2vbmWs8mNAYapck7PcIWP0gYV/01YiSVMWGs1ubphcPL2NEUoRpAKL7Spz1TUSRmbColiQMx1evKr96byJrROxiLWmqKtl7k7kdyUx7KfkGLl/eDhYVO/Uu6fGm1V6qD5Zmdu/ecitJJS3F3pPzLi3aaw2CHKnM9l5a9V2vYrINd8YUmySt7e1qfrOts3FtHNfay8ze9+7Z2bb93qSySSbfYBPJJNtCNcnk24f1JZenpjCN2qv1prrQruY3FphiCL75zW+iOmbQqHpVkQ02pJ+7RztqyiYfYxSxh6oohfzl16Tc/GCAQE2VUigG5Lp7MMnuVgsjqmOmQFOBif7GhrthTTs5TYvX8XKqTn/77beVxvaG1jVfVmDZWp5+3oDSptPpRx991PSUaxKJUWyAjjVfSmDFt31iIy/CEOp6+eWX5U/5yU9+Mlx5FNeN7jVfNsiRfdtnulW/fOONUco4Z7SfzSNq9s16+eWXm3o8haKUVF1dar7Utm3p5+xbMJq8b4ZBd8wkjC0rDuVeq1RdmGfPnj1+/Pjx48fPnj179uzZPi2p2qelK/t0LWhf8+U8WOnbPpswi2NKY1hJGOmz7BeNNkwV0rqxyuPHj9uW6hqxE9V9uKGq1pY713w5gXXubmmO4ziOo5mOl9nuazqd4grpP6ld5m7cuHv3bvqn+LxPTkwxKroHGmRn0xcza5U3Zwxm1ZZ6V5hOKgOA0+k0dVZZjSknphiIXmq+bJBDGH2yIC2B3NmMHgncIJ4fmrsvaUTjEMCjR4+K3+6HExtuaf3mF+23yHG4dd9dLHer+dLLVYpSbjLWZDrnpgMID7a0OVnV2KTO5uHhYaqx0hJKF0ahkKVzzZceaO42aZ9T4sN2LVMz226jfnl5+ezZM6y2Dy8vL+/evTveV48qdp+Oy1UaT/ZtVZU1x7MRJwklJDMQdnl5iQnSf2stHx4evnjxAsCjBdPp9Nvf/rZSl2IDjHq5CmdBFBm663raSoSjUaGFv378+LGQmThyeHioBKYYLZuaTT/zPK8HM9mdElTLUDF+NiQwrSIy3w6lK8WusJkFl5wSQhkf6E3CCsVo2YzAyoMcCsXes+UgB7a0iLNYgN5Rqy0V2G6QQ9RsMdQ82ZLMRiWDzU/JHdUk4G3tSzMomxEYT/wwNAAAuuVk5iJeZT4Ms9mWQrFNNiOwJDYsx1lpHE6n09xUxCtgIjdYvvVWpUIhSVOBcUbCOO+LOKPhfBLvqoNaMNP1LoUsR+29oRg/TQWWxIbl6AkzZ1guTdZMxzEZWz24ShzSGEAE3RUKvLy8nKw6sYm0UxJTOpS6FOOnaZh+hiikcRAQP8bSU3FGSBDELInj0rO0mSVcmG2t+rdJ4YNCsU809WCa4zmFg3weJOQc5YspOZIY0PVVeQkXtK34oaCXjUdLaRGfHHTVVmnAcPM51jDoe0C3FaLspQ+mJSFNLAthiNIuGJDEAOLYDwLD9Zz2832HYKACqI1HFWjZB3NyGhKbRlFqWQiZ6RSXfGmmU3K0I6obphg/TQVWGg+cxTGNAQuhr1u9FEuGXKgjOyFDCU8xEpqPgwUiHrjSRHScecesjyUp68nuYCw0VqU0hWK79BKmT6naNEoMlEURDGN1oKyF20kV1bDkCsUW6GUmB6NHD84AAAfHftmuG2KgjNLZSvctt7FUzZ5t2VNU80+xQzQVmOk4ADQTgJk5WNg0Kg/nHEDCuVa99rJ2X8S1KJ+mGCG9eDDOaBjruj6bVWwqyunXv/7TO3/6h3+wPNR0X8RSSl8no16wohgPvSy41EzHcUzT1DRevmpZc+iXP//pL34R+v5iweV8S6kmCDmpaKFih+h5RXNVA5CzIIpiWK5XtW82pHZuK7JPGhtuddZOrDQb4csfutPncpVnz569/vrr5d+VLbicb+6b+bPHwigUY6AfgYk9d9MPRZlVRTaa7ovYpnAKxfbooYmYquvDDz/88MMPs0cGotgZU9Sz+Zc/tGCcL3/oSD8eTOgq/fzOO++sNhfXrshUADsiA0lu3749qg0/tkVXDybnrDTTcSxdtxyrl5XNqq2o2BUG2Rcx69AyxD4LyxdktkLJTDF+ujYRX3/99aITe+edd4opNdPJxRGLnSh5zSh1KXaCfvpgQlHCcYnPhUAi5ywMgwi2u9IHy23KsQ1KgyXyAq6KtajVlgr0IrDUiZU6LgDzF/AZtuU6aby+ZKpUt7mI7SiVQdN9BJSWFFX048GEv6oeaNYczwNnLCQ+8lsGKBR7TJ9BjsppHGD0iJAQM8dL1VUyF7HVVKn94Pbt20PH6G8vyH3uiG3b9TnKGHnttddqhqpqspBPWZ/FcLTxYLdu3Xr+/HmTM0zn3AQ4Z5TBWplxP0k3p29RkAEpnadfmqAvvlq9tuA96Ztj23YQBJKmqpK9N5nbkclRPrt6ao1IlWStKfnC9Egzgd26dQvA8+fPxQfxWeK87EDzch3Z/HWVk9Htg532qeo7Y6rrpViLrMBSaYk/0w9y3qxu699RSUuh6JcGHkwIqd2ifc6IH8CAjXhWtqeAop8GjGjXSZqqSSbZPlxrZ8NGejfVnQYCK5WWaC6uc2Jrt/4dL5uZUiwzbU8mYCA5/W/D2a1FZr3W2hCFMPKNb3yjlyL1hZTAbt269fOf/7xDLot1mP2+C314RtXL2vDc2bFN1d3R1/O1HAfb6aUiW1y8oCiy3z+HlMCeP3+eU1S2rZhGFAei6SY2b7zxxg4FTvZpiYqiSNeZHM3HxBrQboPRGnWNTXhjK8+GuQ6XLyuwz33uc8WDQ/sujOM3GM8+Vl1Ksq1zd5derlp2qtTz589FwFAo7datW8J3Dee+RsL8Ll/NZ5yseFROKaUcADij6WfMt1llrOwrKThjxfTLrHMlETkwLk78h/QjXRqpu4r5hZTkmD+3vKiEUkrZPzCx6SxjjC8ONrvoQVn5FZbFy9y6HPVXLU+zuYipzK6DtNbCYTkWQgZGw5njOI4F8UuxJNEYC5Cg8JWM2eW0lzKuMv8VuYWxbjnWDBxAHH8fZ0HIwZMgiktOrLoQB2GNHjKZ5sQp3melxxczxJQxGs9MbX7Q0etMbpLcr5AWj/xd5tZlWFFX6SNJmjaTfZW0AM4oCRPxwywei9QPEw6A4z/+k8YzO5t4/pUMmil2VuCMkkq/khlLNR1rlrDQD5P5gWMDCUtgGJWnZK+CMq5pYDS2mq1ySIsXhYzFERLT0eOFkejMp5SioclhyfwKi+J5f5XeupW73WMzuM99EfeZfO3UTMcDpYn4rIPQZCEonuBLf2KBJwmA1a8aoZmOl530Mg/5FHTCWRhiZa8TS499WDYKfnBx7qICzbNghMS2DV49TpnJNH9uqbM1jt3CaxqHpibQnf8VFsXjjC5uXf5uA6VX3ZiJzMk7PepVg/wLk5qeMhBbD3KMMMKRq5z3788/nJ52LW33q55Op7Ie7JNPPmmXx2i5efPmL3/5S5mU46lVXUqyrXOHoPjEv7qadzEnk7nfuX+/68uuernqTk3EV155pXhwA1LcVr6KMTCdToWbOj1d6iolq7TuGutOe4GV1nJxfNC6vq181/IrR1+u+ur/zr+zyZJcB0rVleXq6moMGpPtg2XrblrFv/jFL+be6UAIefr0qfg8RHUXWRfzBXB4eNgoX5kmokznU9y9GnUJ/u/8O/12ZbPTXLb1Tt2tVFxxpfXqShEa694fa0eDPliRx48fA7hxYyXQL+p9Wtf7RairNF9xXOS7eVe2Vl2SaRSSSKoLI/BjjcfB0lp+48aNYi0XB4UGqtpy7ajPV2Qt8t11xhBRGEMZSmntqIXG+i2MDM08WNpCS4/cvXv30aNH2T8BPHr0SPiT4ZxJmtFm8pWvcLnuVqnjKrVWDKO3C6wXU7bbWbVLGRQpbZqInucJH3L37t3Ly8tUY+LP4Z4Twn1lMxJZD50vah+cLardGMYV+72iTSLfPkzTi1biVui0L+KjR49E0/bu3btpLc86tL7ItTbTfJER2xD5yjAGtShGS9eNR9O6vuFaXpNvtgW7AfbsvdJjLluXZ9m2Aon7MBcx20wFkI4T9JuFZErJaKFkT2k4utQ2MYVPx8zc+BZG9+9jMpk0aiWmkfqt0NWDpS20tK3YS7FyFCMW2Xyx0NgQWe8r01pqT2VJjCjADElhk0tFnjYCI4S8ePECq/2fbH+s70LOOTw8rMq3i1m5WtWVPZrMYc502DYSzNQOl2tpJjDhSdI2mKjcadssresvXrwQY769x+iFtvvKN6er1jJbKx6RIG2VScbNG7XiJHcikbG5Nr1mOqZpNm0fdn+QXV5enp7OW4mSp3SZydHLk7f9VKnSGRXCwwykrvqZHE3VdfPmzZdeegnA/UUE9/T0FOPu5e8oxTra5SaLyb5r5yJioS40j3C0GzkstdMmyPHJJ5+88sorh4eH9XMReyfNFwuZZWk3P+t+Znzk/v37p6en2Tk1nB650cEBABjF95pxRpOZY2qcEj8yDCOKotVUiwSVuS/tX1wYJ+dOiyYXpzRx0hM5JX4EXFxcHPvnVkj8CDBsz5kVL4SRo8A4BnTPMVG8BEaOYvfc0Uq+asXqq0y7TFwSvYPUj5XKTHzVdewrNdxhL+6WUURR158+fVparYebCijyRYWcGuUr3Nc6Do6XlYpREkQwXM8BY2HwnejTH128qf8qAriepwEAZxycUT+IYNieheDsgaHPnFlI/Ai26xW1trDPKQk5RwLT1DhjME0w6geRYRi/fhP/+i+RYRi65ZigS1OMkiAyYGRWM4s3HVISuo7GSGR7nskpodxduRAAwMz1PU1jhDDMYn/lEgBGY+MYADjNf9WUITq3qcaQWQAmBpTF56y0WsYPr1Y/t30otA/Tp3W9eLy1Tcl8UTbRsWm+P/vZz1566aXT09PaJuLFmXt0BuD45CQKdM9z5vU1gEvdkISW+Qs/0B2kujp2LcvzLEZDplnGwbFlJoTAdV2EPp0VPMDC/sGx72mgYWKaGuI4MRHMs/tj98lfnlOHUxKCBX5qyhblYYTkLoz5ke05wHyLDk03Vi/k3JpxsZs5oySA4SIJkL0EF4gtRw8pgCRa/cocyy4bqcZSLeWma6S62tX1YNjqGscesxYaOy1/0B0c+0IUnBLDAqDpiBIYhr6oaDMDIYepmY5nMkK+H56d4cTWV80kSQLdyB1c2ueU+AkwWx7nMQwLAH76P7g1y56RmoqMGYCZYSQrFlkAO9ts53GEmZW5EOEZf/fY+pLpeDNKQm6tXILjBz+6uDgDcKBb7urVJUBTgQ03iy3rxwDkBru66mqSbyK2M7gPA82tSX/7VF3VN1FzbBDKjCgwXA9hDEDTceYzy3NBUjdivwn8REccnJ0ZlqPjzGe+jSAA8CCyzyuNu8YRYed25FMaR2eR7Xh2dETIAS6uDn7HJeQAFxeG5WVMOTYIpUZ0FtlOxtRSX6ZtEMJiRIbrIFzmNd/dhRFCbSOKDNfRtOwlfFk0ZRmlM1PTzJWrcxvd3yyr3Zi+vEpOvT07qz5egyQVRfzsZz/bQ1bjI11wufWF5UU4o4npzBj5+r8ZXz5xZoz48Ar7Hu0MLWSQiTDZrmeCktDyHG0l8mS7dTGkjmTXs7a2IOXBJDeH2V3Gpi4AmujtmB4VojILS7h3ilZ3eB6YYYQkMGeF40Oz/U1vFIohuTjzSYSLC5z4ueMiYIPjdGgj180bzxOzh/eDNbsYTo98/dwzF+MwEbJPo9JvQYkb4QCG68L3dW/RhWjeZJIvdqMLvIarEjdyyQtPxQhhpps97ld4sKt5x2k8bf42ApumO3c3vRjOaIgD8VGMw3BKQg5Hq/tWj4wT15ppmgbYIGKQKBcra15sKSQGQNqY3XGkLnk+QI2zyPA9B5mO07Fx9rX58Drsc89E5sG6gvBgAAzbA+L5n5/+17/+KBLH56Pmy/Kk/200bCVf1FKvUEvbJmJ6MY1qlWY6DkRMStM0gFMxZsM5B7SKbzkzACAkBK7nCIWhub7yxa75AfI/2NprlDO7V6y7ZB5GsD3HhMM5B7IdJ06jjGuCOVs+WLNozvlK1DX3Z3/IF3VW9ArraCuwCTq/2YVT4uuuZ4Kz0A+iXEQo/RZ8Zlmappk2SAKYNghjMNyd7vPvP5rj2pQcPbjAwYnvadmRbj/nmrB8sI68qBoyXkGO9QKrbG3n3yTQDEZ+/wx/fuCT2Hadwr77K9/CJ6E9H4ACTNc4cuG3e5oVtvMv7RxXvWahKn0vbwnYMcouOXtz/umrX5053rmT9qCWHSdOg2HDgA3HhTkNpYu6fO5LIuXBcmXNbXkpnZdgHm82vcuyUpZ+K4IZiwP5poMspcXOlj/3KKm6xl7vxk5SdclZpWkWyBHBARY9qOHL07YPLF/Ulee+3ADc+oHm69KpKLtSmSOKItu6S+ny9s1nXUrL5SoKxTgZj7RSuu7JoVAoalACUygGRLaJOPSeMNtlR3fnHSfZm2nbrd6eO3qCIJBMKSWw6XS6r3cKTW5Wjj2+J60p3szhtpDIInab3WRekqggx3UnCIKhnxRD77UsdPX06dMNbOrcVMODCKz4GCv+hKV+QyZZuzRbJC2eKFW2tGuPSCZocUrxpsnkomhKzwKram6J41U/bTZZsca0MJVNMx5k2qJr02wggWQahQwtBVbartjkTytpamwa2zPUHV5LY4GlNXucXqKK4ZqRI2+gDsSOVoPN02wcrL7hvkM8fPiwl5Jv/fKDBRvOdO0RhaDNQPNHH32U/TD+mytKKEortgS+d+9ej/azllF9Q2ReIb02TS6BvaC1hdZpdq4abIUGAstWU0U76ituXy9x70VjVahq0IjdGAfL7oq8u6zdPV9me/3uRnrJRSFJAw8m2iFvvPHGYIWpZA/UNRCb74NtsRrsIm36YOnNFR/GH0EqrRO9FHs4y/IFyPXBNsbOVYOt0ExgxZu4K7c1Lado/PRY7OEsj5bdrQabp3EfbHdv5XAl39170ppreMntUOvBdoAutVn+XKWZIVAC2xpphd5Mza7KRelqUJTAtkZuttG2clEDxIPS5zhY9llYXPtQJPfTliaTSSOfbFRkPdhwtXwnbsUeM/aB5kEr32aQqeJr02wggWQaRSNkBdallve7AqXHHDuy68pXbIA2O/tKkt19srhFTPYrmfcD9WWqL7rfk9ZpxmNEsRYV5FAoBmTsfTDFHrCZzZ42mZE8SmCKYZHZ6al+k0nJZmr3jOTzkkcJTLF9Rt5z7sKGBNbjhalu9w6hAq0DBjkklaAEk2PtDenljqnbvhnWvx9MoVC0o+b9YJyzJFn+OZuZmtwrPyVPlEnWo6mmBS4eBPrPpVGC3oww6gcRYFS9pLHr/Vxn/3pR1URM/ACzBYjDpCJd2xNlkvVoqnuBO6JpaRbBgwdBUqh5IgHiIEZlMSSN1CTglPiwPM/zPAs+obxNLjXI2L9e1AU5tMWTK4miRkYlT5RJ1qOp4U6XzYMz4gaGf35eWmfnhYhnmgagXOcyRuoSJDDcuVvRTNcIQo6Sl5GvzaUSOfvXiSoPNjMQMPH84SyAMZM1KHmiTLIeTTUtcPEp3uW5DgCcHh35seu7FjgvfbBzRo78CFHCeVih87VG1ucSJYvDPIkMvbSNuNZIDdHyyVBl/1pRE+Ro3ZiWPFEmWY+mmhd4/hT3ls/g4hHpLNZ1bBglsDxTA6ck1Msvo48+GKck1D3HBKN05pRdSLc+GKMkEE+HC9jnnil/5h6iXoJeCadHbnTs+y7AOdc0reRIEzRtTTWdWXaSMJYAuq0jKc0hCYPY8hwN4IyGMAu1V9NMJMuHRVmOmmXDJySAYbvltV/CSA2mZUMHANgA52h4+t5R1URs3VuVPFEmWY+mmhaYQz85sfVkDuf427/78OCerSdJ8r2/9/2/b9x0yuZXVsR5rAVxTZADERASygHNdPSYMqlraZRAMk3NxfnLkNHsuqsLNVHE1d5qFMreZskTZZL1aKppgTXNnDOLg3imafit//5t43+DeGaa9048+9ebBhs5JXP8CJHPSssonNZM06q7kbrj6T6hnHOUdNPW3ooeb3sp4twU+RP3luomYpQs/DtPIkN3pE1KniiTrEdTzQrMKfGXFThi3AOgOx4Ioa5rlVXuejTH8wDOaDJrPzo0MwwAsH/zP78Xhl9wnZIm3tpbESVAGjKtvO3r01SUEFHIuLV4QCiN1QQ51veGK5A8cX0yRp2/+Zc3/4w6Jn/wF6cvf+tbf1JqSDJZFZKnc0rhOBo4Z2EIq1UshbPQj3XXKuuOyYYWao1I3FWZIESXQMXKdTQdpN43aoMcmuM5AMDjCI0i35InSiSLbv7Bm1HMYWon3/ozShnKntnSyaqQO11zxINc00ynqYsU8CSJo4sIiT4rebLP24VJGMKyEIaJWfpoqjeyvKsoLyXn0G17XRDCdNpH/zLRHE5pxVVcIyqnShXaSJKPbMkTJZNJtsq6NN66ny6JZppWHMAyK+6kpmlAAtQNNK81sq4M8+5dkoTBg7OLY99s97CoJjNyNsycmB1jzJN9JVtlHRtvPbT9eoQzBtMEpYnTzA/Lmqd+EBmGPdB1rjQQ4yDWvSGuYmeYTqcDCUyqN88pCa21g7Y9mlKAMxoGEQZT2EpeQz0mdobpdDrIejDOkziKk/ZjRYOYUgAc0HXb1vXYPzqaHg07GVe73uoSDOHBOGNh8CAyTuy2XYUhTCkAYHV2oQqjD8tAU6U6dsQHMqUAoDS1acYc5FAodpuh+mAKhUJw4+rqau1mcQqFoh3KgykUgzCdTq+urm4AUE5MoegXoS4AE/E/AJPJZKtFUij2h1RW/w85c9SwAW/33gAAAABJRU5ErkJggg==;strokeColor=none;points=[];labelBackgroundColor=none;rounded=0;html=1;whiteSpace=wrap;" parent="JhZKAX3BcbJPcAhVRO4t-7" vertex="1">
          <mxGeometry width="48" height="32" as="geometry" />
        </mxCell>
        <UserObject label="" Manufacturer="Fortinet" Comments="" Cost="" Location="" Building="" Room="" Department="" id="JhZKAX3BcbJPcAhVRO4t-9">
          <mxCell style="vsdxID=5;fillColor=none;gradientColor=none;strokeColor=none;points=[[0.5,0,0],[0,0.5,0],[1,0.5,0],[0.5,1,0],[0.86,0.61,0],[0.8,0.61,0],[0.74,0.61,0],[0.67,0.61,0],[0.61,0.61,0],[0.52,0.61,0],[0.46,0.61,0],[0.4,0.61,0],[0.33,0.61,0],[0.27,0.61,0],[0.2,0.58,0],[0.15,0.71,0],[0.1,0.54,0],[0.08,0.16,0],[0.15,0.16,0],[0.86,0.16,0]];labelBackgroundColor=none;rounded=0;html=1;whiteSpace=wrap;" parent="1" vertex="1">
            <mxGeometry x="160" y="520" width="86.10000000000001" height="15" as="geometry" />
          </mxCell>
        </UserObject>
        <mxCell id="JhZKAX3BcbJPcAhVRO4t-10" style="vsdxID=6;fillColor=none;gradientColor=none;image;aspect=fixed;image=data:image/png,iVBORw0KGgoAAAANSUhEUgAAAfwAAABZCAIAAABUlgGtAAAMjUlEQVR4nO3dv2vb6B8H8E+OW75DhyDwloCwMLTDLc4f0IJAJbeE7+It2zXy4A6idPnC1+TglqNosIc8vdtuy/LFy4kIBOmW4ZKlQw+EhIZuAeOhw435Do+rKo4sK/r5SH6/KFSW9PzQI/kj5dFjie7u7u7u7ggAANru7u6OeMRfLBaLxaLu+gAAQCnCCP/9zs4O/7C7uzufz2utFQAAlGJ3d3exWOzu7n4XfkbEBwBove/qrgAAAFSngKAvSVL+TAAAoALfV1lY9PSA3iQAgOpVFPQlSbq+/v36+vdwThD87+Dgp1JDf+yfIDjZAMBGLY4eO+FU5u2RJCk5LY/4fPrLF2UwGBCRZf3C55QU+sN95jj/5ROq+nO4tB07DwDKEI34PIC0I3rw7dqh3NuQHPSjEZ+IvnxRfv3115ubmzDoE5Es/ztPBWILpUi4jwp3Xv6tXrcouTUS8lyXUPxUyQnRIIWkSkgofqrqi8usguhRI0mSSh+9E434CfUosMSEfZYwP0MRj126cTNjVxA/1caEmRskW6piNy1bqrYeIRuJsK/z2Bg9+KJGj14pIOhnPreH0pwYUkreZ1wLdtuWqH0f1V4B0bS7QdJEjxbIGPSlNTLXo8CDKc0+E3O/ZvubMTbVxqyypapY7ZuGBikkVWbZNq1sTb9qzN6n/3CbH+YjSdLl5SW/cxvq9/tEdHNzs7Ly33//naEaD0tMGdB595xo32oAqMs2RA9JkrIP2eQbHIb+hO3nUT555sNzQAbrzr2q+rOYl/YAIDge39sUQDYE/Y3DMTee65488d6+fRudw0fvrKxWyGU+AEDhGhTx+YVvcliO79PnHfSTyaTT6Tx9+jRz7xUv+8kTL/wXLrKsX8J/t7e32fKPLe6hBu0zABBKU6IHj9jj8bjT6Uwmk4SgHRP0JUkaj8fj8fjs7Kzf75+fn4/H4+RcEhwc/LRxnWK7xqI/o6iyXABouvTRQyg8aB8fHz9//rzf75+dnfGgHbtyTNDniY+Pj8M50enHms/nyXE/zVmhcA3dtQBQO9Hu4oYRPzqTf4y9Ul8N+usu54+Pj8fjcbY6JcT9wp/BwHNLjumi7TMAEEGa6NEg64L26pDNyWRydnYWfuz3+9Gbrre3t3liJX8kA3/8Ts6sNhZEZf6QemNPlwg/fBcnVcXFiZ+q4uLET1V4cXk07jEMjwrakiStBn1JkjqdTuwgSyJ6+/btDz/8UHytSxA9VlYemZR/h2U7gtPcFIn9rYPgqdIkbGiDpEmIBqkx1bqEOSVEj5JKzOPjx4+DwWBd0L65uYmOjVw7Tj88UfT7/eiAy6ZEfCKaz+fhnhN5h4HImvury5JsSYM0K3q8ePHi8vIy/LgyJv7haPjVPv35fD4cDq+urq6ursKZ+/v7Hz58ePHiRQkVLtE8Tt2VSlLlj+zxGIZCUlVs2xqkxscwNCh6zOfzDx8+7O/v7+/vhzOvrq6Gw2HsaPiYK/3T09OVOX/88cfp6amw21y9bE2RuQGrLE78VBUXJ36qiotrxKZtmzBoP3/+nE8kBO2YoD//+nyFTqcT5oimBwAQUxi0w6CfELQ3PHDt6dOneEACAEBTfPz4MeHma8zoHQAAaKtcT9kspPhwOuHEk3I1AADYqPTXJQIAgDgQ9AEAtkid3TtRW/KjDwCAeuFKHwBgi9R/pf/q1auUa/7222+l1gQAoPVwpQ8AsEUQ9AEAtkj93TuUrt8mfS+QUPb29uquAtTg8+fP0Y84DLbTymEgiPqDvuA99SmHFcX+amxvb+/PP/8sukYguh9//DH6EYfBdlo5DMRRf9AXmSRJ//j2xtX+1dUqqAwAQH4I+pslx/Q0ZwUAAEHgRi4AwBbBlX5a79+/J6KTk5PMOQwGg+Kqc8/5+Xk1RWATNua/EdpwY/4VFFH7YVAjEYP+5eWlaK9m5BE/v9i3l+UUvutmMBiUkX+0CCp5E6opooJNSFbSbhoMBmHEaWIbUus2QUwidu+IFvEBAFpDxKAPAAAlQdAHANgi9Qf9hv7UFgCgieoP+pQi7uPEAABQCCGCPiWGdUR8AICiiBL0aU1wR8QHACiQWOP0EeIBAEpVf9BP+ZRNnA8AAPITqHsHAADKhqAPALBFSuneCV88EvtqEQAAqEvxV/rRV02lfO0UAABUo/TuHcR9AABxFBz0Cwnxl5eX+TMBAICHCu7Tn8/nK3E/Q7d+5kcrTyaTDKlev36drTgAgMapf5x+sU5PTzOkqizux75qI/3LHJLf1HF+fr7ufUBFFbFuhQLzr6CICjahlgpE393R0DZs2SaIqfigzy/tJUmqeOjOZDI5PT197BeypLfnxIo9Gh772rbkQ6rsIrAJG/PPlhZtWHERtR8GNSrrRi4GawIACKht3Ttcmuv3/H+kAwA0Ts6gHwQBEZEsy+H08oPj+N2uujL/6yRfp1ivX7+OduhfX18nr39wcCBI3A+rse5cVWAncklFYBPyQxuKUETth0EFcgX9gNm+pnWJmMGUHpGmdZfzma1pGtkG00a0XIfz7amnjLRIyC/wSWp87FD6vXJ7ezsej9PcxT05OXn//n2+2sULuwWT+xML6UQuqQhsQn5oQxGKqP0wqEbOK33X8xUiz+0pGlm2rxARkawq5E5tOtRGukyMr0NEsizLXSKvW/xlfmbpx+2cnJyUWhMAgArkDPo9RVW7zOopOnmeoqoqEREFpJmmTIFjMH9EvXB+lQ4ODpJX6HQ6VQ7dAQAQQQE3cmV9RIZh92hmGBYR9UamYhs2HZJLNCKy3oXz9ZhL/JTP009pPB6nHKrP+3bSrPmPb+erVFoVdBdW1jHd3CJq77RFG4pQRO2HQXl2qL7hlRme2ZCmqul/l7uxbyd9DWMrtre3lzI5tMznz5/DaRwGWyt6GAhCkqQ6g341HowjKmHkEABAE0iS1MKXqASMOURE5DDmMGZ3u12yDRYEzPaJyGcGC+qtIQBAXVoY9KO6CrlT2/a1kS4TuZ7v257b03CpDwBbquVB3+9qpqnrXX/KHD7WSNcP3alTd70AAOpRfdAPuPCT4wTre1uWiyIJNpM1sgzmMMMiTfVtgzHHtoi6RO47wzAMi3rdzbmsq5AT1vfedhQtPt9CC1yXU+Yionv2Wx5BZFGhrVVq+38toMTs01Wg4T2RFWxBJY3U9P1wT9VBf9mxTr7BHHKY4dOyx50vdZwguu7LoR3wtXgCcgzDIeLd9WvLkHXT1FXdNHWZVN3Ul9Oybl6YpmmasSNH11e43DsEDmMBkWO8NJxvhTlsyLMN2MuXLOCrsUg7FFVENH8enXmbZxDdswEbvvxa/+HX9vHtabac1/PtaVn3ZwJm2EQ+q+/+j8MqGCkcMKO8W1wBYz6RXWYbOlm/FI+R/Ushpjq6d2RZltVD1zI8GqmyLMu6qctEQeDYlmV/i/uy/uaIiFTdVGXyiLpE6mHPc4gcj5Tqf+9Vyh2CLpFPjtd70/Mc8om6ROR4dHZItkNEdPRGWQY2LdIORRVhR/InorDNM/q6Z206ekZ2QIFNz474An9qKY86224ujGyLRoVm+U1gu5/c6dQipa77P4HnuvZ0apcbzWzlsFda9rKud/2pSyXeQ1OzfikeI9+XQjy19um7rs8ngiAgkuWu0usp3e6DQyRghr2MGKpGnuN4pMXH/GB1Kgicb2eR+0uDR/c5lHGHQNbIMzzS1OX/MgXs3Ww2fDebWTxj1VSmzCO61w4FFTGbRfMv0qFCNrNJOVxW3Do0Cz5NBzYdlhTyiYjoaGSaI/Lquv8j66apmyOySrtOdozhzLXezWYlXsXKqjmikk9cmb4U26z6oM871g2rNzJHPctgjsMM25eJiGRV0x4+mMcxhjNyreVfobJG76w11w6rvQqOYdjU7XZ9xpyHS3mHg7+huqXeIVgW8MlVZJIV9xNpMgW2e3R2cXFxcdazGK+dairujOx77VBMEc/++k+Yf27f9qxGRKrizlxFJSKfDWefyDIMgzkFhhe/zMs7Weu5U+bYbqmXkEkCZhiOY9NhadfJqnlxYZpvjo7KKmG5CWW2oZP5S7HFWvXjrICxKdFI12w2JRop7pRMU6UgCEiW5ZWlui4HzLA1XCQAwLZo4Y+z7vUqcIHv20N+/zdmKQDANmlb0I/0KpBqHnoGY77nuc+WfTCRpQAAW2gnnGpNJw8AADzEnyD5HREtFou6KwMAACWSJImH+tZ17wAAwHoI+gAAWwRBHwBgiyDoAwBskWXQXywWGV5eCAAADXN3d0dEi8UCY3gAANoqjPD/B3yM3Qoy41jWAAAAAElFTkSuQmCC;strokeColor=none;points=[];labelBackgroundColor=none;rounded=0;html=1;whiteSpace=wrap;" parent="JhZKAX3BcbJPcAhVRO4t-9" vertex="1">
          <mxGeometry width="86.10000000000001" height="15" as="geometry" />
        </mxCell>
        <UserObject label="" EquipmentType="Firewall" Manufacturer="Fortinet" ProductNumber="FG-1000F" ProductDescription="2U Next-Generation Firewall" ProductLine="FortiGate" Attribute="Rackmountable" Units="Inch" Ht="3.5" Wd="17.44" Dp="17.63" WtUnits="Pound" Wt="21.94" IVoltMin="100" IVoltMax="240" PowerMin="210" PowerMax="408" HeatDissipatedMin="1211" HeatDissipatedMax="1211" DeviceRelationship="" PortDetails="" Gbps="" id="iyjpudLqGrSWxvUebYDq-1">
          <mxCell style="vsdxID=5;fillColor=none;gradientColor=none;strokeColor=none;points=[[0.11,0.83,0],[0.12,0.83,0],[0.16,0.83,0],[0.2,0.68,0],[0.2,0.83,0],[0.29,0.68,0],[0.29,0.83,0],[0.32,0.68,0],[0.32,0.83,0],[0.35,0.68,0],[0.35,0.83,0],[0.38,0.68,0],[0.38,0.83,0],[0.42,0.73,0],[0.45,0.73,0],[0.42,0.9,0],[0.45,0.9,0],[0.45,0.73,0],[0.48,0.73,0],[0.45,0.9,0],[0.48,0.9,0],[0.48,0.73,0],[0.51,0.73,0],[0.48,0.9,0],[0.51,0.9,0],[0.51,0.73,0],[0.54,0.73,0],[0.51,0.9,0],[0.54,0.9,0],[0.56,0.73,0],[0.59,0.73,0],[0.56,0.9,0],[0.59,0.9,0],[0.59,0.73,0],[0.62,0.73,0],[0.59,0.9,0],[0.62,0.9,0],[0.62,0.73,0],[0.65,0.73,0],[0.62,0.9,0],[0.65,0.9,0],[0.65,0.73,0],[0.68,0.73,0],[0.65,0.9,0],[0.68,0.9,0],[0.7,0.73,0],[0.73,0.73,0],[0.7,0.9,0],[0.73,0.9,0],[0.73,0.73,0],[0.76,0.73,0],[0.73,0.9,0],[0.76,0.9,0],[0.76,0.73,0],[0.79,0.73,0],[0.76,0.9,0],[0.79,0.9,0],[0.79,0.73,0],[0.82,0.73,0],[0.79,0.9,0],[0.82,0.9,0],[0.84,0.9,0],[0.87,0.9,0],[0.88,0.9,0],[0.91,0.9,0]];labelBackgroundColor=#ffffff;rounded=0;html=1;whiteSpace=wrap;" vertex="1" parent="1">
            <mxGeometry x="348" y="310" width="193" height="35" as="geometry" />
          </mxCell>
        </UserObject>
        <mxCell id="iyjpudLqGrSWxvUebYDq-2" style="vsdxID=6;fillColor=none;gradientColor=none;image;aspect=fixed;image=data:image/png,iVBORw0KGgoAAAANSUhEUgAABHcAAADSCAIAAABPU7sCAAA3SElEQVR4nO2dz4sdR7bnTzX9B0xJQrs2XCp9tXibZqwnXMteZHOr8MaLNzBt3MxKJjcWovshGHi4mwcDop8ppE1irR4W6ln0QhtTdelcdO/UqO3hbV3O4oKXwq7q/0CzyLpZWfkjMjJ+noj8fjDyrbzfjHMy4mRknJuRkfT27VsCAAAAAAAAAGCIHSK6uLjw7cYlu7u7fJwBAAAAAAAAhAKrVOInvh0AAAAAAAAAgKhAlgUAAAAAAAAAJkGWBQAAAAAAAAAm+alvB6axu7vr2wUAgF3kZ1SjQwBgDkx6ygLdAgDRw+fJKzFhZFl1pxlKtQIAlKnOd/HJLqMBAMSB5PmObgGAmRBKXhBAlsVqtRAAgG2q811w4qNPAGBWyPQJxH68BQAwRX2yMx8PcH8ui3n1AQAscXFx0TvzB30CAPNkqE+ov3XpDACAA+JuwTussywMpwCYM93eE30CAHOmd0SFbgGAOcM50QpgxmAvrQoVzyIYlbWUmqWZNcpBJlBCJlZGIBMoFWT2BkOco2K2wYMehrmMGLS+1QSJc+WjxV3KBErI1GQUbLfgkh2yuXrP1Gpq/SI19ANVrw9dpY6sq4TMbA1HIOsqIVOOpSGancDoUxmjVoKTdZURyIaUkFmVdZWcZQIkxwlDtji3EQLDsWxICdmoknO3IOgTBLvLiycVLjtjcHfL2ynUe8k7JOPJpO1qMjCKZENEIAPM4Rw8iLEuZvvqEJtVTYZYmkQE8YPRjm04NyuCxAEOUhupLKvpwaQDaPo0aUd93FzIjcuaX0nKrPqjIIsPzrVtNuQ4+DNPOPcwCB5lvBxR3LGkT0DxIwnnFrfqjz1ZfHAOEl+N4ia1Gc+yKj8medDrE5/gjuzc5nw4LmUMXQpCxsoBBYxY4dxArGpb34FwZQxd8ivjjMsjrQuJvi9SgPPheAmS6GVmsRqZblKbkSzLiB/y3rhBckqlF5k9OB+1ERlDl6YyzyDRxIgVBI8zB8KVMXTJkiwCXFZIXQj6ImU4H3X0zRpKkBjEZWojyrIM+sEWbsHa/MqsTM0fQA6b1WxpnIMEIdcCwSMPgkcM5yDRjyWgDOfAUPNHQQbEBBokk3Cc2jh9X5aR21lDld7ajlPOOJI1HIEMKOOlSjkHj2RpgFTrhFXrmw0SNRkQwzkwcCGzDef24iADCohTmx0armUbCd/Ozo6gUXdVV2iNQDaklJTZdg8yq83qJkiYx9LQvrVe0CEYd4aDbEiJ4IHMkmxI6SuWepEfJ3Rtca58zrIhJboFyEaV7ruF0T7BZWoTapYlKQBukGwIzjLAE/muU14jLzMLQtE26GHmwNRxgnLJrGTANpxbH7E0CrKscVfIZu8JAAiRqVkWACBuME4AALRgm2U5fS7LAbu7u93bjlHKqO8GqxsZ2zqBrFfJWSap1IFzA0UgI/QwkElgVqYP5+qKQEboFiAzJCOH3YINnN7LEt/IIr3fqLrN4GV+ea8Ssu5GJu0VQZDEGpm1WPleFpPm5hw8fGS9SsisynqVnGW12OA4YcgQkzbiHBgRhxmThuAs61Uy6RZG+wSz2Y04tRHdy7q4uNjZ2THlh1V6G6O70YFM0jdlGSuUD41Pe0UQJPKR4yXGfMU/n+bmHDzKMk041/B8ZDI76sg0cdZfcW4jzoHha9BiO5j5NARnmcyOOrJoGJkxaDDRGr2R5RGzrW41Iof28iIT76VJoKcih5GxZuEBBYlfK/JwiAqzMi9RwSrGfDGfq5VxuF2hAmpKSRnnawo6GXk4VKlkkKjhMrUZfy5L35udnR2rKZag0ptf6QdE3OeVVSQbQqGN9FvfrGxoF30QfkYIJSowJqiwd4Dcug5crZjg7AqlYBS9R0UoCSq33sN7LPGhSm10shvJ1Oan8t4ou8L2FpYOsUbeVHaxvpM20QeJJIilWeGluRFj+kTZXyEwAHAAq96jOuWVsxvJHkN2jcELDdQOQB5JE5xl4aJQD4Jd7FU+59ZHLFW4OUCFqDBbGmeZSzjXg0J/5d1PZzCMJX1w6dGXucSsS95rVb9kdFnK2E5tYlvJvQXnMAooKL246swo52ZVk8XdXm6s2EvGApWpwfmInHWtERydVaNxN4QzQ5xlkli9kHGWWS3BnlFudcWTSLIszjHhRibZPanJpjozKuvd0YtR9244kJm14itIbKAcFWZLC1HGOSqY9FdMvJ0k8zKuZdUnyBvCpUdZphZmlpzhKdMpf85dFn92iJPTu9rvdK8mfY7uVc8NFSshsyqjie1lVjaqRCwxkdUC5Q5h1Ap5jTHI/MrIa0eE/kpBZmScMGqI5Gp1ammSBc6kKUOXUQjn+0xiSWeoYI/YsiwAQEyw7ToBAF7AOAEA0ILtUCGSGYMAAAAAAAAAwASpldwZ0loOUpC2NpWQcZAJlF5kxKBOINMHoQjZJJlAiWZlItOHc2AgzMKVCZScZcSg6jh0Cy4JcsZgK54qukodWVcJmdkajkDWVUKmHEtDSE4D4BMViLFR2ZASMquyrpKzTIDkOGHIFuc2QmA4lg0pIRtVcu4WBH2Ce8KbMTjUGEPb1WRgFM0Kb23nLAPMiSAUZ4XZvjrEZlWTIZYmEUH8YLRjGwQJgsQ24WVZkri5kBuXNb+SlFn1x54sIDhXo9mQ4+CPQQIKRc49zDyDxwhejsiZUS+xpE9A8SMJ597Dqj/eZQHBOUjiq+0m0WZZAiI7aTkfjksZQ5eCkLFyQAEjVjg3EKva1ncgXBlDlxzIvMeVGi7PmrqQ6PsiBTgfjpcgiV5mlkD7nyZzzLIk52uandbJZ5KoGLOV41LG0KXgCLFyjFiJIHi8hyLnOoy+h2F1SnLAZYXUhYTbF0UGwzrkfL7PM0icMccsq4l+eDVL0I9pydLsyUCXCJpVv/UjSwm4od+OZktD8IQL5yDBZcgjnFsc8cMfNKsa4WVZQ5Xe2o7runHULt6a7eVFBpRhVaVWo0JTxqqimGC10+bcw+AnZ5d4aUoO8QPI0zDGiA9+jQJldohTte6qrtAqKRtSQqYm6yrnIxtSQqYmG2JXenlWDlGBGEPXMSobUnIwyko2hPw4oWuLc2BwjsaIZV0lZMzbqxf5oYJjQs2yJAWTZKCL2RqOQDYrOFTd1K6Tc/AgxrpwbogIZFEydZwgqZmVbFZwbgjOsrBAliWFQu8JAIgYtl0nAMALGCcAAFqwHSqE91yWmN3d3e5tR9sy6rvXCZmkzH17cZaRXNXNKjI14dzcnGWEPiFGGfE+2d30CfKGODclZxn56xa8GJ2JjHiPT3gSz72sbjN4mUjaq4Ssu5FJe0UQJLFGZi1W/oGKSXNzDh4+sl4lZFZlvUrOslpscJwwZIhJG3EOjIjDjElDcJb1Kpl0C1OHClaJ5F5Wb2N0NzqQSfqmLGOF8qHxaa8IgkQ+crzEmK/459PcnINHWaYJ5xqej0xmRx2ZJs76K85txDkwfA1abAczn4bgLJPZUUcWDZFkWZqYbXWrETm0lxeZeK95wmFkrFl4BEHCLRQD6mEkZV6iglWM+SKgWDIbJPp4qTpncAgMztcU9B7ycKh5ySDhTwxZlqDSm1/pB0RwrcsHyYaIQGYPhJ8RvEcF5xhjiL2xEbeuA1crJujXaiiBEW6QeE8puXULCjKzhBtLtokhy/ICfhepiP4AdUCQTAL1oEC4v+PipwpnxH0PxwhRHpQpUDlR4uWiMMNYiiHLknzKjbMsXBTqQb9O7BmNQBYubg7QXihyjgqGMcb5ACWbNbLWlyTKjshL/LhxwJnMJV5COoIgCSUyYyKGLEsA5zAKKCiduWqvC9AvIQKZVVi56iUUJUsLVKYG5yNydtZEcHTcqlQNbjXMOTA4hBnnIwo0SLwYjaP3UCaSLItzTLiRSXZParKpzqjJJFE2yqq9vMjmEyTyVnTszirGOEcFExkTNybJvIxrzcaSPggM2zK1MLPkDE+ZgwtlHJEZXDK2Q5yc3tV+p3s96VO8I2SsZGKlWaPGC4TMtqwW2OsQJJWIMchGZczdi0MW4jjBl13IApKZLVByiGXWqEeZzlDBHrFlWQCAmGDbdQIAvIBxAgCgBduhQiQzBgEAAAAAAACACT/17YA6zO9dTpKJlXO77RuNTKxELBkniKjgHIpGZAruQcZBJlb6iiV9gqh8zjKxEt0CZKNKht2CM4KcMdhsiZqucj4y5u5BxkHG371eJKcBcD604Jo7uOCBzKrMo91eJMcJxv2BTEbG3D3IgpYJkBwquCe8GYNDJ/bQ9jnImLgxSdbabra0qbvPQcbEDRsgeMw2d1jB46W/8uuMY1mIfYK8IU1/JC9kajJJo6xkTNxAtzAfGXPCy7Ik4RwTgV5mvBydWmmcD5xbbQfqtj0rnCvEWXObLS0CGQcfOBy4F0NmUXPby1EEGhiScD46dAtG4HbueyHaLEsA59htygS7SMo0HdCXhQvnWjUbS24csIfLUOR8oTLb3KEET7gdEefq8tL64Q7v5pmAofeYRCjXDkmZ/olstjTOzDHLAvrwmfNqiegPMBpctpSkLQSPPqjqCtSDGgy7BS9GERgCGAaJWZcQJByYY5ZlNvIUZIJdzMqGdtGXgQrEkr4MiEFUREkoQ3NnsYTAsI2XptTvFuz1RWAS6BbUCC/LGqr01nbvw18OcK4Eq1XK2VXEkrxMk4D6BFb1Jg/nSlCTcfCBlSw+rAaG2dLibkrO923QewBThJdladKNod6osh24kkZ1ZDI7Gi/Nl4yJMw6alXMsScqM9+NmB0C+ZHyaO4IYU5axcmbOIaePl8BgHmZ8WlxmR19GlWVurDCRBdotuGeHOB3JrvR7MKjxVNyo/5USMg6yUaXZ0qYWCJlfWe+O9V7iDmGqM/JKyGYrY+7eHGS9O8qPE2z4I6OcdL0z6B5kDmTM3ZuDrHdH+aGCSwLOsgAA0cO26wQAeAHjBABAC7ZDhdnNGLQE53VIOctmRWRruTqTAeLdQBEE9qzg3PrO2stLNDKHc4sHGmYBwbkhgm6veO5ldZuhd1+zsq4SMjXZkDICWVepI5tVZJLeD1QRhGJXCRk6IjVZVxmijLTvZVkNjBDDrKuEbD5BouweKxkxvpcVSZY1lOm2ducsG1JGIOsqIUMsyShJo+vk3ECcZUNKJlEBGYdm9RVLtVg5y+LcRhHIhpReugV0MkHLhpQy3QKrLAszBs0zFENi2dBeEchAF7Ug0SwcQRIHZoOHQ1RIguBRxk17cQgSAYgfeThfeswaBcpwuBLxJ4YsS1Dpza/MyoAyXtor7iBBZLbQ7/3NNrfVpDoCzJ5QXlrfSyxx64jiQL8pzZbG+QoVX5g5a1azpXm5YAEZYsiyvOBldCWW1d+aLU2nkKmyyGBYh1NtxRck9qww7BP8yhwUMrW0UDoizpUTbpA4MxRZmHkZnzhwyZJMEu9BwrkOjQw8mDCjLMvsNE3J0lzK6m/NlqZTyFSZWRSMMmzWqTKztuILEntWOEcFw5bi7Lm9euDsp/fKsVSIe0PN0jhXPufxiQOXLMkksdd7mC2NoYzPM1cyxJBlCWpcoUX1S5st+uePQkOYNapWgj2ZJIjMFl5C0ao/CrBKbo34EKiMmz+zxVm34MwfezJJrIYZ5/6Q8/jEWV8EZIghy/LFUCC2ts9HBrpodmpqNcw5SBBL8mhWqWRpZo1ybu45xxjnk917kCAwRrd76T0k8R4/4cL5ohBNs+4QJ6d3zb0HQ7Bja07nkNJeaZB1lRHIBErI1GR0vROY2iFQOFGBGOsqWRnlIBMo5xNLZHScMGpoVMYhzCTdizswZtstYBhTK3WGCvaIKssCAEQG264TAOAFjBMAAC3YDhUwYxAAAAAAAAAATPJT3w6oU99JFOesnGW1krNsVAkZBxmF0Pq2f17i3EAxRQXnGIPMkow8BYk+nGt1Vk2JTiY+GQXbLTgjyBmDrZmaFV0lZ1mv0qxMxz3I4pP1KvnE0hCS0wA413xwzR1c8EBmVdardCAbQnKc0Guo1xZk3Y1MugV0MmxlvUom3YKgT3DP7GYM9gaQe1nvjmZlMjtGI2PlDE8Z51jSRNMKkwYyK3PQwzAJHvQwUcaSPm76qNbucfRFfLqFsDoZVs5EECRuxg+2CS/LkrwKMglEHZk+nI/Oal1xdpVD/SgQotvx9QncrjqcKwE9jBEZB0NmUXPbSzLGWaYP56OzGiQRyCThdu57IbwsSx/OsduUCXaRlGk6oC8LF861GlksacIwFL1cqMw2t/eoYBVjNuBcXV5aH8M7G8zzmhJ97+EFhdZ3Vhpn5phlAX34zHkFMwehCAAAYCq4dgAHzDHLkjy17MkEu5iVDe2iL4se70EiKeMcJLONJbMHbjYqJEsOJXjCjTHO1eWl9b2cNdHjZeARSu8BJuE9lgIlvCxrqNJb23FuE+9KsFqlnF3lFksRH11AfYKzevOeATKXcfCBlYyDIbNYDQyzpQVaw5JwDnv0HsAU4WVZmjAJ3N4dzcpkdoxGxsoZx7IIYkkTswOgOGQRRAWrUOTscwSxZKOj8BIYzMPMS1PqHFRYfRErZ6KMpRDZIU5Hsiv9HgxqPBU36n+lhMyqbFQZgYxCaIigZb071nuJOwTiHTyIsSHZqDKCjoiMVt2sYql3R/lxAvEODM5hNkPZqHI+MuLdXr07yg8VXBJwlgUAiB62XScAwAsYJwAAWrAdKsxuxqAlvKxCy1kGlJlPLAHmICqihHOfgCCJBi8tjviJkqCbNap7Wa2WGNoXMoayIaVZo8YLhMyqjPR+oDIbFYgxyEZlzN2LQEZhjhN82YUsIJnZAmcVmcT4XlYkWdZQptva3axsSAnZqBIytRqOODJ7laTRdXJubs6yISWTqIAsgmZVltVi5SyLcxtFIBtSeukW0MmYkg0pmQRJLeaZZWHGoDpDIdXaDhkYRbKGzZbGSgbksVqHXqIC2IbVyY4g4Q+HS48bo2AUzfaaebcQQ5YlqHSFINAvDYiRrGHOMgFmZZIgMlvot8J8ooJD8Og3hGRpZo16DxJcrSbhLDDMlhZBJ8OwcE2jnIPEWSwBGWLIsiThPIIxIqu/NVuaTiFTZaHAsPUlZZJBMlWm49JUmSb2rDBsbs4yzh2yPTgPhRnKnLVXKLkHwzaSlE0dnzhwyZJMksj6oii7BSPMKMsyO01TsjSXsvpbs6XpFDJVFgoMW19SJhkkU2U6Lk2VaWLPCsPm5izj3CHbw4ufDFtfUuasvbxUuL2SGcqmjk8cuGRJJklkfVGU3YIRYsiyBDWu0KL6pQExkjXMWSbAS5AgMlvoN5aXPmG27ajfEJKlmTXqvevA1coGzqLRS/ygyxLjrFnNlua9LwJDxJBl+WIoEFvbIQNd1GpYrXBNowgSfQK6NeElKoA88+kTjAcJok4ezmFm1igYRfMMZd4t2GaHODm9a3SF1qF9W8pemdnSIBuVDSk5y7pKyMzK6HonMKlDUHZmSImocCwbUnIwqilTdo+PUV8y0hsnKPszpEQnA9mocj59kS8Z6Q0VrBJPluUXSVcjkAHbmG2I0GMp3D4hAthGBdCBc58gI+tqEFoM8dItIBJsw3Z8gixLCoyoAABN0CcAAJogywIAtGCbZbF+Luvi4iKsFRsBAAbp9pXoEwCYM73jJ3QLAMwZVmlVC9ZZFqH3BGCuDJ346BMAmCfisRS6BQBmCOcUi4h+6tuBcepBFed6BACYYvR8R58AwKyQ6RNkZACAaAjifA8gy6LrHSgAIG5kOk30CQDMB8mBFLoFAOYD8/yqIowsqyKICgUAOAN9AgCgBboFAAATuD+XBQAAAAAAAABhgSwLAAAAAAAAAEyCLAsAAAAAAAAATBLSc1ld8JArAAAAAAAAERPo85ZBZll1chVopQMAAAAAAABkCHTkH1iWFcTq+AAAAAAAAAAj1CN/5q8hbhFSlhVWzQIAAAAAAABMcXFxEdAdl2CyLKRYAAAA+LIp8nV5evpyufyQKFllKRUP1+WSaJVlC9/OATAdQUiv1vk6WWXpYlPka1plKUIcOKN+/zj/vCCMLCuIqgQAADBbinWZrDI6PU2yLK22lMtVli2KPN+saF1uNwMQBoKQfliujrIyzzcJlcmK1kWK6AaOqW5qMc8OAsiy+FciAAC4AQurMqS6QqXZalMUf/jP//ynw0NK0nRBdPryaU7LZLWi9dNTKjZJurj6xR9NyQEvowv+TT8a0kcpFXm5ytIyr/bYEF3GdihHByKAf6IVQJY1yn/817/Un3/78z8JBArfAgAAHzhfTmbOplivKSGiwzS9/Fl/+eGnl5MFs08/3SwW1yZVoSlnSyhNLwjp4uHD8vCQNkREVF7bK5SjA8ABO8TplOimpDJJqjjLkv+2JZj0e0zl5H+T2OUf2+mk8iUri3X2NSgmTjEGAAAAAADioJUpsLq79RPfDsSDTIolL2MO/ykBAAAAAAAA+IJ1lsUqH/UIz0rg6RVosimKjSNLeZ7njmwVeZ7nTg5sU+S5M2MAAAAAmMrU2VUuYZ1l8eFiDPHu/xgWSBbY3TjVjameyxyypFej9SPJZc7QSB3cZREBsinydTkuM2OLVtmK1oUTWyVRskpcLBu8SLNsRZQEt0bxxkVqWJ99tk/D7YlvPZO/NOQujR9hUxQbJ6l+o4atmrkq33rXXdly+euPESq3bUfgZUM4+RWpbnQX0ZU7ii4ApEGWJcWukK7+HxcXzf8EswTly3TMpON1Q1mW5WazKctt7lCsy9LNyD5EFmm2SlzZWiw2REROLm2rVZaWa0djp2JNq9AWKN7k6yTLyGoV1Tm87WT+ypDlTP7KkLs0XsYf66n+1pD1sNnQqirfwQ9Ala2nTxNnv/4Y4dLt/3FqNQK3DUEOfkXa2ipcRNeK1oXTnxcBGAVZlgE4JEUu8Xe8p2VZluVp9ccmPz4lOj0O5xIaL0WelyXVK/lapVyvi6IkN6PgDSUr38PtySxWSfkwPz61mWPXObztZP7KkOVM/upAnKbxEv5YTvW3hqyHzWJRrf29cPADUGXr06PU3a8/JqjcPvx/n1qNwLohHPyKtLWV2o+uy/7B5c+LAIwSw0ruYDYsV2m6oOpe1mZNh0dZSkWeb9IsuJGwExapo9swaZYRkRtjLm25q0HTHCbL0knS64wizykhB5l8uV6XCVHCpuUdpvpWw6Z4+LRa+3th/2gqW8cP88NDcvPrjxEqt0+frunQYgReNQRZD63aVmI7ulz1DwBMgvVK7pKrX3hfyf2is4x790Gs1rd14RdjD+21KqR3e5OhldxH9aOeDJmW8QoAAAAAAADjNPMFVivn4V6WFFMbbNJy7b2Fe5+FaCZGN0VR0uU74wEAAAAAAJgHyLJAP6NpnkQattlQQmWZJBsnk0QAAAAAAABgAbIsYI8FUUEJlSV172U9evTIh0tXPH782K8D8nivK6CMfpih9cNC0OJoyoAwcoFAi4fFaKOPPoIRn0ys9CILC2RZg8g/p1QhXrG9KWv+OTp/tCmY6tJUQ/KlNYsSeLVYpIJ7WM+ePZO3aJb79+/7Mq3GpLq6ffv20Fdv3rwx4Y4HWwJDLm1NMmQqzDyeKUAemeZGUwaBwQsEWjwIRlu8Ncip/uyOqeKT0cDosVfWLVBHFkeihSxLxNQ2Frx9eGrJQ4KpOyobmoRyIWdnZ/Li/f19wbevXr2SLGdvb0/eKB/quur1v1mT+/v7Q8nA7du364oaLWdUIzbULMqZLRlDmrYkKzDQMAMAANBk6Hfk7oJtMjKBFQWZF6NuiCPRQpYFGDE6RBaMfeULmUSrC5NZ2lFfNsq/v21v2dvZUzjGVjn/tqOoEbO3t9d12JItmULk/dG3ZZCDgwOLpROdnJzAkKYhSeI78PgMmSW++rFtyKUtS40+hOS8IbNLoJk16kUWKMiyABe4jX17z/zujytmZQAAAACICS+3jLzczorgHppZkGUNc/76xfNXP1zfdueDB6tJ84DOX794fv7+1U5n6ydffbv98tb+xx/du6HtqNgiNY6k6X7vxr7tRuohIjic9t288ezsTDyjsqaSVdPeZPLPXo2MrVpzdna2t9MOl947b/q2hgppme71x1IFAgAAmDOSYwazQwsvRkELZFliVLOJOtW5ce+jB82Nr25+8ODBZYln6yfPX5Aw0epJmcScrZ+/+oHutDfd/ODBR3tn6ydfrd+tCuvdOLzdRVbVO/YluUE2TRxnO8DeTzWCmYGjazPUgv39fZkZhr0awWNLXUPVZE5ntiSnTQ7JjFcgAAAAEDqSa57ZkwUKsixnnL8+eUX7HzeSlb3Vx/svnr8+u2cmganuOd26c+fWt83NZ999e2v/4z0i2ru3f+v5d2ervb3+jUNid7gcZ4vBtGMAAAAADNFdbEzmWh+BDMiDLEuJq0l0jUl/569fnJzfpG+/3c6u++rJj/sfvPvdV+fvP1jtnZff/XDn/Y+u37Zq3umi69MJ73zwYEXr569+qMr5+KN7N+qvB+4s3Xz/4wd7N85fv/j2vOHqjz/SzXcrszdu3qTvfjynPerbeGNIPEfQcwEAAABA8wpuduaebVnvwTKRhQiyLDHffvWkcWPoMrupZ9VVk/7WN+uc54dvqZoQWM/0O3/9XfXVxfkPt24IT9Oz9Vff1haefPW31/c+Wn28/+PljMHz1y++qgo/f/3i+YvX3YmGNyzeduqtByACU6IBAACACKiv1OJJ/k0ZDV/fOcvqr3jKggNZlpi+fOL8xx/pzvvV1r1379DfLm8EERGNJFI1jbtW9d2wvdWD7Y2tvXfv0I/XjZbf/XBp9Ma99++8+lt5fs/4whnDOMqrJB/BUihE/m1ao3g//4dqaeqbeWUqSr9F3rx5M1SIcVtDhUgaslGBAAAAomHo/byjryqFTE1GPJYcUwZZ1nSu3ZXavXHrh/MLosuE5+bNocznunBv9eDBiojO1k/+dqW5tprfrc4IrnlDqftt8Mg8fzVKbwnNt2nJ0/xlpbXRnkwSlxUVkC2eBwUAACA+mhd0wU2YKGW9Si8y5iDLms61fGl8IuAlN5J3bz3/2+t7e0N3oM5fv3j+3bsfP/joBrWzr0uUbij1P3Y19ixWc/u52EDkeJkqDQAAAAC2eHmjJh9Z744GZdHwE98OBMiNmzfp2++qdezOvvt28P7Vjz9ey09u3DvYp1fPX7yut56/fnH17iy6OP9hW9TZurG9KudG8u6trdHz1y+erKXX0dt7984Pr16fEdHZ61c/3Hl3b3CjYPuM2N3dlekFvMgAIKLf/OafBf+OClpiHVtxG9K3FcpRu7QVoiGDHB+f1P+2/pz67yRbczBk1tac8ZJWtWRDewU3UsK9rCt++/M/yQmrFdifPCGqnqrqSUVuJO/eevXq+ZPz5pMbN+599CB5/eL5k/rBjTvVGhpVqff2bz2v5gTe2v9g/9ZX5xdEe9tyPniw+uiD9ROh0UF3P7jzpCr4zgfbd3X1bhRsj57eM1z5DrtkafJGAQAAAMABwVi/eS+Is8wswSU/zoghy/rtz//0H//1LzSQJtXfivftobXMevure0J9Q3GvLers2ffVvQedjduHucT0uN2741Bpne2Ceogd5TvskqXpyAAAAAAAFPAywW+GyVgMWRaN3YbS+RbMAQ73xwEAAAAQNAoPaeu/eFOyNLNG7cliYoc4zVBq/YqPH/Uj5tGjR8+ePTs7u3q+zMgag73cvn27ub723t7e/fv3Hz9+XG8RnPatgBRYkblfryCjTl05q6g4bPk6qG6YqVG1PhEdHBxUW1oPk3z++d+bW1p/ivn887/Xn09OLh9XqA11bSkTkKGqAmWqsbZVGbp//z4RCVp8tCmVaR419R14b8zIH+mQLeZNqWzIyJlLfS3efCjo8PBA5xmhw8OrquitH1MPIHkx1GurZaiqwOa/arZOTk5GT94uMpkMZMZlXWWtl3ynmWOw+gUAIub2uwvgTzUobP7b3N4rGPpXwZbav2EZkhTr4/GolT3hfFCWDBmkGtzXQ/zmn1P/nWQrVkPKnlhCebVhB8sU2zbqRsYnfZIkkhmDAFiCVf8CAAAAAO+03oEpzgpkXvdksMDu+zk13eMsYw6yLAAwQRkAAAAA0zD+y6nBAr0Y9SVjC7IsAAZBnwKiRHm6lNW5WHymdbkklGM06KezSYNRYmkun0uvPBKKn5Ehc1dNXhYWWP0C+IHV6hc18vemJd9tZUSG1S+CMESuVr+wRO9z7TAkb0hh9Qur/sCQsiF7q19YIr6GcGlLbfULIIPZJTHEhniufoF7WVbYFAWl6aL6HxX5uqRktaKn63JJySpLF84KERSf52u6LOjqM/UZzVJqC4g2xcN1uSQTrvCB+R12AAAAAAAQBMiyrFCWZZKm1f9oXSarLKHNer1cZVmZ55s0k0lLjBQyRJGvV1m22Gw2GyrW61WWLajI801Cfzgu6Si5ZjTPm4IySVMiKsvlKtPyIQjM3umO8oY4cEP9yy4MsTUkSXwHHp8hs8RXPy4bItBGB4Inz1u3nmRkgYIsyzppttoUxfq4PF2eUlHQKRHR1OTESCE9LBYL2qwpSYmIEqKS6MNPkzI/Jvq0Nnr8cnmYXQlqTtdFkVCSxnMrq03r5B+a12dWBsAkqrku8lRTmDgbmmorCEMyxNeU8RkCAAB5kGVZIU3oYVEsS0pS2hTrNSW+ChEUnudFQiWtsixZP8zpkMpkldG6pDRLjn9ZUrY1uvzXpGwIjtdFkSRXzmyM5Hv8kFwA0KwMgCG++OKL7sZPPvlEYbw4VBQHQ2q2/Bpq2lIuJL6mDNqQWYbCxhSjoR6cIZe2LDU6ADSLLGtTPVyUJGVZnp7S8nD7cFFS5utqS1LdkWk/jNTOHVoDZdFdiDQ7IqI0rT5n9efmh1GMFDJceJYSUUpEtMiO6s9ZRkSLoz+nRLS4MppeCY4ubdcfZobkLWyzsha3b9+euosyUdpyeVBWcTDWcWzIpS2XBzVKfEcdnyEA1Jj+sEDjyfnNtcfyT1/+b/rw/yxplWXVM/W1hiQfknf25ILgdTVNu5KyQIk/yyq2DxdRmlKeJ1m6oCIvS6I0y7JqS5nn1HkCqv8Wzdvthx2XBzELXr16tb+/79uLSzjfyGqtmGeVKG25PCiDfPLJJ0Ojye4P+a0JVM+ePZOfUqVpqLvRhiGaclC2DZn6Lbz3hszUpmw6M3Tg8RnqtaVzFlhCJt5kChndy5Sh0R2NGCKJg7JkyN2NrO3ocXdn/KfVovUwfOOx/IQoybJFkeebbEWXz+knVCYrWhdpNvbj9+7uLsaxLok/y6qfaEqOsmrLJj8+pSUdF713hJp6zYlwgrH1pOUpNUsIiECHvwB455uvv6k/v3f3va7A1BBz1JApxIYMPlfjzNAo9+/ff/bsWe3Pe3ff6+YJ33z9zbO7uk05aqg2F4qhCmdngQ5GziCZA2FyqsogeZY5M+SbTdl4Wr71WP7py5dEtExW1Qi1yMtVlpb55Y7cHuCoRqqjd88kZSESf5bVeaJps6bDoyylIs83afWF8SegqlgZeifP7du3ZVY+EBciv3bCo0ePRjXGCf29E4Jb2PZkAKhx//79Z3cvx7JDQ3MjwywZQ0RkJg0YNlRhLN9wYigsDMaMM0POzgIdZOJNjOSBmDJEY6ezvqGK0bPMmSG77MgM2xZZss7z8vTly+W//nlT5NtB6XKVpklZJtvlnYuHT8vDQ9oQ0fW1yYa5uLjY3WncznLCnF9pE3+WtWg+0ZRlRHQZn+nlH9XnwSegprO7u1u9RE/w7MfBwYF4cdKqkJOTE3Ehkk/1OP79Ju7hCN6UBUIkplSheXskDkM19VBSkMSaTS8FA9awDMkQzVkQzYHQlLOsmWhZNWScy9xG/opfPTlfDVDp2qB0cbmRiCg9qp+Tz+jy0XkLzkzB+FttamWgg6X4syzDSE9j5faGh++//96NoXfeeceNIdv03oDqnudmZQCoUY0/qO9ZFLMDC1aGDKYBXUNNYhrUjhJuEussOHWQibchJh2IKUOSd5nUDDWJO9lmdbm35AxeftMFWdYE5Fu3m2JVd7fqbyvB0J2oKpg0CwH6NOcKCyrZrAwAszQnF1l9LsWLIXtUUwDczzGrxqy9y4qYrWG/hiriC07bzPwsE8SSWUNgKm7WDAtuxIssyx0nv/4jER18+avqzzdv3ghmAw59O6mQLnfv3pUXT+Xrr7/W2d3qAoPy62p0z2EHUwQndRwuKyoOWx4PyiW9Iw8bgzAYsk3XtLwzX3zxhfyLhjwakrfVNDQKt6bsRdmfqTvGZ0jZFrcYmA9W32rDH2RZrjn59R/pRGUhhIODgyrF0mRoOQ1NjLyAyK9v9W8n4ttNkq9NmyqbdI/LZUWFbsv7QZnCyPtwxUXBkJqhSWnAEMaP2rshG7acxQyYCZNOXi9ribWolhbj4Ak11jnj/PIbv8woy9q+c7ig9PLFbdstD9flsnr7G+V5efmCtzLpvN9twluJr9Oc6Qd40j2re39Z6ZVRJxjMygAY4pNPPpn6G63aWjjODFVMshWEIRmm1rDg5VEcDMUanGCePHr0iEnYPH78mIMnzZMOyzIPMZ8sq1iXJVGalGVyuVRLvWW5yrJFkReblOjl8XqVrsrj0/LTvvVa3m6Xv9zB29wiIpoZwCBixD+4Sl50q+uiuCgYUjYkiaAQ+cGT5oE7MyRvi5UhszizFZ8hx7aAJNXNg0ePHoX+2h7bzCXLqt9EnCy7W07XxcPT48OjIyrowyWVRUnLpbA4MEtwTxwwZNKPmjq/gDozNGl3JoaMTFiIrynjMwSAr9lJ4hXR/HoiQO2R9aHbWcH98D2TLOvqTcS/PD79sCiShMqrLcsvsiyjy5cUr5LyKa0OJV/wJsfJyYn+yXByckK/NuIOmIDZBzdn/hgo0MH2BbW+cMKQsiFJ4jvwaAyRnbewOHM7yobgdv6CXvBWm15mkmUt6jcR/3k7DTDN6NqWxkuKj66+BnPHyzuII+5xAAAAABAf9dBF/EuxWRlzfuLbgcDY2bn8zz1YQsM7SKVAcPzmN/8s+Fdzd/l/rRqahPKORnYXlGbwGK16ZbCoUGLGJcfHJ5L/GizKmSGX8PFkhvSuHCZzC0tSFhDIsiZwcR35HZEgMWeoNYM+t0GsjA4fgxhNGsRSDjC00QtWE5KppcnbYosvJ1sD/bmN/q2mc1NLA25oJk69SdQkWXAgywKAaGD2cK+s+4ymzL46MgAAAACAsOhNlobeYSOzMThm8lwWAOPIpzcySswbBAAAAOLD/YIZgilRjp3B5KxJ7BCncV7rEbdAn3jrzb8PDg5Ofv3Hyz/+5y4RvXnz5vbt270HuLu7W33b/uL/XooPvvxVdV4JCqmpXqX3/fffE9Hdu3ffvHkz8YCkuH379tdff01E77zzzv3790dfoVB5dXZ2Vm/Z39+359urV6/qP/f29mQ8rJF8U7BZWZNWXTmrqDhs+TqoqWE2RP0qzPra1prm9Pnnf29uaf0p5vPP/15/7l3Ry9SUqoAMVRUoU421rWoV2Z/97GdEJGjx0aZUpnnU1HfgvTEjf6RDtpg3pYKhypaRM5f6Wrw5me3w8EBnbtvh4bXBbneNQVMT55qGehvChqFeWy1DVQU2/1WzVbU4CU9eut6aJycnf/nLX+TNafKLX/yiMkpEVXBWAwn3nlTOVKZHezzxzajm4hYyMjHNfIFV7oAZg0REm6LYXP2Prn+8Yvc6Tl0EPuhOFB66r21QBoCYalDY/Le5vVcw9K+CLbV/wzIkKdbH41Ere8L5oCwZMkg1uK+H+M0/p/47yVashpQ9AcANyLKIiMqyLDebTVluX5JVrMtyXfRJ327/m4KRG6y4S+sYvIMYAAAAAMAszXtNMou5hwuyrIrTsizL8rT6Y5MfnxKdHvemWWDuIPsCAAAAABAQQY6kD7KsiuUqTdNkSUREmzUdHmXZ0WGZd2cNgnmAVAoAGQzOvPI1iQt4RHP+HmIGgFiJI0nD6hcTaI2Vh3yztPpFswSsfjHVt6mrX5h9alPz4U6sfhGEIXK1+oUlep9rhyFJQ2qrX9jzp/oAQ2q27K1+YY/u6hf2rDgw5NIWVr+Y6gzJrX5R0xwCCQY8tUxh5M929Qus5D4Bv812cnJCvzZQTs/ShUSTBp29JRhhqGR590z5dnFxIXMDyqxMHpeNqGlrUos4s8Un0gAAAICImfOLbZBlzYvqdlOLu3fvypdQ37MyTuuGQ83+/r6Rckxhtr9Q6FYEFTUp0ZKpqF6NpRZxZiuUSAMAAMCQzz777K9//atvLy7h4wmpzvnSlHEGWZYLTK0x6Po1ePNG5z5Vty8wfjsLAAAAAL743e9+T0S/+91n1Yfm5+aHrlK8S3f3zz777PXr12JP5E0r+1M78/vf/77Xje4gp3fynlkZc5BlATBIdT6PvkfYrAwAAAAAQVCnIs3P3Q/KG6vcRt4Ng6ZbG8XOaC4G1l2XQUbGnwlZlvIv8RxqZFM8XJdLolWWUZ6viZJVlpQFpSnlOWUZFQUl9HRdLomSJDkuyyVRssrSRaOQCO5dDlE/ZCKYcubxQZRR96z65n2KoDxVPThoRJcB47L1nVUgAACAaGje+RFv1NlFvihTptX8acI8L7Kd2khlWZUTb99OfBfvlp2dHe9VXJbLVZYtivyXD+mLo2xBRZ5TQutNkhBRQVRSSpWGqMjLSlxs0sXiekF1HexMsF6tQKV5CKZWv+hSP2cleEDL3uNYNXt7e73bm2vrCXZvru0mKCQOusd4dnZW14D4Aa1JFSXWCFqku66j2JCOLbr+iJSaLUsVCAAAIEpaN3Z67/OI70Qp7CJflCnTMv64fPmNqbRNP7UhiVxrPMva3d1VdqLi7du3kt5Y5PTl05yWSfLhkhZERAlRmSZJXtJqRWVe0iql8nRdFAklRKfr4uHp8eHRkXlHDr78lfLjVQdf/upqOfgY+fdOoP3blGx2qBy1Qtiyt7fXrai9nT2F8b1MRelXprzDNmx1C3FcgQAAAGJi6MEkewh+qXfvTBeXyzKbSrH0UxuSuI00kmXp+1F7UyVa3lh++GmWLYiI8oc5HVKZrDKi4nRNWUpPX9KnGZVbbUnLVZpllOebNFsMlzmRgy9/1fxTMPVIEGHdQrzfJzSIqUGqqXIkf3cZeumZ8r4AAAAA4ImD14VJ4sWT+lVmgWIqtaFtdiMYyLlb/WLUFaukWVZ/OkqJKK3+OMqIiI7+nBLRovqGKE2z6/tMpn5/XE3rz0ogrg3JQlR97MfjYycydxJk3DM7Zat6WaGYofvXo/tWrzhUoJtGto5ash1l0lGxxqAhl7ZGNWaPCwAAQBzwyTH4eCJA7ZH1oZsNwf0wLcqyDGZ7FX4TLTNIDKp4rtn9zjvveC+hy9CzWH6L4on4AOUPX78cSVujMme2TDls0JYCzi6oMKRmQuYXmVps1RkY4kZ89eOyIVg1ut+7WN2f2j160urxmqsotzYqyKhvLM1krmALcWqDldwnIN/Ao4nW6I0smVRttJAa+cu/S3h6xRPU1ZxB60cDmnJuoMVjwntr1g4w8eTx48et7XUSNTrENSjjjGhRCuMJH409KNatyqArF0SA5JOaajsO7QsAAAAAVjx69Mi3C1eJjXdnuimWL7rv2hInGi5TG2RZAAAAAAAAgPDgnGVhxiDgzibPy1WWLjZFXiZZUubrcvt66e32dUlEp6e0PGy9SBoAAAAAAAD3/MS3AyPwXEkCuKSkl8frDW3K49Nyna+TLMuyFW2a22mVZclyiRTrGps8z4uNM3OFK1ubIs/zwp0th3Vogk3VEJsiz3Ornm8NWQ+zTR1almOsWXWOAkxIwx+bB163oO2YuTJkv2uqTTjrl4xQuW07Aq+1uIOGyF1FV+4ouqZyzTe73fIEZ8I6NYZhPuVNlGVdXFyYfcmV2gKDVhOt3S2Wygcm+HBJZVHScln9uSnyp+ty09kOrrGhVZbR2lGXXhTHV2+cs2tpXa5WSeLksIp1mazKNYcRtxzbG7tUrCnLEnutXxuyHWa1Idsx1qg6dwEm6Y/VIKxb0HrMbA056Jq2JnJn/ZIRKrc/+e/HViOw0eLW+7cNrbIVrQv7PdLWkNsLnxTXfFuR3wvK1gd3l2yrKKRYjlMbd/eydNZwt5RoVWW+9957xksGZlkl5TElCdEqoad52d0OuiwWVOTlyuB7tQfZFHmZHNq3Q0S0KU+JFrReu7yIMrpgi1mk2Sohok1JRJTYOze2hqyHWX1EtmPsquo8BJjAnxpb/mxbkKzHzDZUHHRNiwUV+TERueqXzFC5/U//a2k1Ajv1bzHUF4vFhoiosB9dlaGNwwufLA3fLj94d+blH47DOjV6YX4Xq2Lkuawq59N/UEz/NVlVomW2Qqsyv/nmG4NlAuNUb4c+IqI0I6LqpdJp/ef2w0L9JdJxUjx8Wh4e0oYW1i83i3S12pRufhdbrJa0LkpKUifmKMyf+xYrWudFSZTZriZXYeYsxpwHmAw2j3vbgtZjpg6V8qn1mKlsJZSEdQJXbi9PS6sRWDcEkfXqKfKcEiJKV5Tbja5LQ4vi4UNXFz5ZrnzbfvDuzIcffhrWqdFF59ZLfTtLM7upChEnJuMK2h6MmjcyTjQNiZU2MtcgsmEAAAAAAABmzugqgvJJByllN/KpjdQag1VBahMZbdx9MlssUiwAAAAAAAA4YzYFUM5u5B2YsJI7k2ykfhV0808AAAAAAABAZFgd81vNI0J9X1ZdKVgeEAAAAAAAgCgJ94ZKqFlWTbhVDwAAAAAAAIgS7m8lBgAAAAAAAICwQJYFAAAAAAAAACZBlgUAAAAAAAAAJkGWBQAAAAAAAAAmQZYFAAAAAAAAACZBlgUAAAAAAAAAJkGWBQAAAAAAAAAAAAAAAAAAALjy/wEYkX54jbsVzgAAAABJRU5ErkJggg==;strokeColor=none;points=[];labelBackgroundColor=none;rounded=0;html=1;whiteSpace=wrap;" vertex="1" parent="iyjpudLqGrSWxvUebYDq-1">
          <mxGeometry width="193" height="35" as="geometry" />
        </mxCell>
      </root>
    </mxGraphModel>
  </diagram>
</mxfile>
